<svg width="300" height="127" viewBox="0 0 300 127" fill="none" xmlns="http://www.w3.org/2000/svg">
<path fill-rule="evenodd" clip-rule="evenodd" d="M54.7655 0L41.4831 22.9662C39.5202 26.3686 38.277 30.0981 37.819 33.8931C34.2857 32.3882 30.4907 31.6031 26.4995 31.6031H0L13.2824 54.5692C15.2454 57.9716 17.8626 60.916 20.9378 63.2061C17.8626 65.4962 15.2454 68.4406 13.2824 71.843L0 94.8091H26.4995C30.4907 94.8091 34.2857 94.024 37.819 92.5191C38.277 96.3141 39.5202 100.044 41.4831 103.446L54.7655 126.412L67.9825 103.446C70.0109 100.044 71.1887 96.3141 71.6467 92.5191C75.1799 94.024 79.0403 94.8091 82.9662 94.8091H109.466L96.2486 71.843C94.2203 68.4406 91.603 65.4962 88.5932 63.2061C91.603 60.916 94.2203 57.9716 96.2486 54.5692L109.466 31.6031H82.9662C79.0403 31.6031 75.1799 32.3882 71.6467 33.8931C71.1887 30.0981 70.0109 26.3686 67.9825 22.9662L54.7655 0ZM61.9629 59.084C62.1592 55.8779 63.0752 52.7372 64.711 49.8582C66.5431 46.783 69.0949 44.1658 72.1047 42.3991C75.3108 40.4362 79.0403 39.3239 82.9662 39.3239H83.0971H93.108H96.0523L94.5474 41.9411L89.5747 50.578L89.5093 50.7088C87.5463 54.0458 84.7328 56.7939 81.4613 58.626C78.386 60.3272 74.9182 61.2432 71.2541 61.2432C67.9825 61.2432 64.7764 60.458 61.9629 59.084ZM61.9629 67.3937C64.7764 65.9542 67.9825 65.169 71.2541 65.169C74.9182 65.169 78.386 66.1505 81.4613 67.7863C84.7328 69.6183 87.5463 72.3664 89.5093 75.7034L89.5747 75.8342L94.5474 84.4711L96.0523 87.0883H93.108H83.0971H82.9662C79.0403 87.0883 75.3108 85.976 72.1047 84.0131C69.0949 82.2465 66.5431 79.6947 64.711 76.554C63.0752 73.675 62.1592 70.5343 61.9629 67.3937ZM54.7655 71.5158C57.3828 73.2824 59.6728 75.6379 61.3086 78.5169C63.0752 81.6576 64.0567 85.1254 64.1221 88.6587C64.1876 92.4537 63.2715 96.1832 61.3086 99.5856L61.1778 99.7165L56.2704 108.353L54.7655 110.905L53.2606 108.353L48.2879 99.7165L48.157 99.5856C46.2595 96.1832 45.2781 92.4537 45.4089 88.6587C45.4744 85.1254 46.3904 81.6576 48.157 78.5169C49.8582 75.6379 52.0829 73.2824 54.7655 71.5158ZM47.5682 67.3937C47.3064 70.5343 46.3904 73.675 44.7546 76.554C42.988 79.6947 40.3708 82.2465 37.4264 84.0131C34.1548 85.976 30.4253 87.0883 26.4995 87.0883H26.3686H16.4231H13.4133L14.9182 84.4711L19.8909 75.8342L19.9564 75.7034C21.9193 72.3664 24.7328 69.6183 28.0698 67.7863C31.0796 66.1505 34.6129 65.169 38.2116 65.169C41.4831 65.169 44.6892 65.9542 47.5682 67.3937ZM47.5682 59.084C44.6892 60.458 41.4831 61.2432 38.2116 61.2432C34.6129 61.2432 31.0796 60.3272 28.0698 58.626C24.7328 56.7939 21.9193 54.0458 19.9564 50.7088L19.8909 50.578L14.9182 41.9411L13.4133 39.3239H16.4231H26.3686H26.4995C30.4253 39.3239 34.1548 40.4362 37.4264 42.3991C40.3708 44.1658 42.988 46.783 44.7546 49.8582C46.3904 52.7372 47.3064 55.8779 47.5682 59.084ZM54.7655 54.8964C52.0829 53.1298 49.8582 50.7743 48.157 47.8953C46.3904 44.7546 45.4744 41.2868 45.4089 37.7535C45.2781 34.024 46.2595 30.229 48.157 26.8266L48.2879 26.6957L53.2606 18.0589L54.7655 15.5071L56.2704 18.0589L61.1778 26.6957L61.3086 26.8266C63.2715 30.229 64.1876 34.024 64.1221 37.7535C64.0567 41.2868 63.0752 44.7546 61.3086 47.8953C59.6728 50.7743 57.3828 53.1298 54.7655 54.8964Z" fill="#C02046"/>
<path d="M150.818 58.7568C150.229 58.7568 149.378 58.1025 148.331 56.7939C147.154 55.4853 145.91 54.8964 144.471 54.8964C143.031 54.8964 141.854 55.6161 140.872 56.9902C139.891 58.4951 139.433 60.458 139.433 63.0752C139.433 65.6925 140.022 67.7208 141.199 69.2257C142.443 70.6652 143.947 71.3849 145.91 71.3849C147.023 71.3849 147.873 71.2541 148.593 70.9923C149.313 70.7306 149.967 70.4035 150.556 70.1417C151.145 69.8146 151.603 69.6837 151.865 69.6837C152.323 69.6837 152.519 70.0109 152.519 70.5343C152.519 71.3849 151.668 72.2355 149.902 73.0861C148.2 73.9367 146.499 74.3293 144.929 74.3293C141.723 74.3293 139.171 73.3478 137.273 71.3849C136.488 70.5998 135.834 69.5529 135.311 68.2443C134.722 67.0011 134.525 65.5616 134.525 64.1221V63.0098C134.525 63.0098 134.525 63.0098 134.525 62.9444C134.525 62.8789 134.525 62.8789 134.525 62.8789C134.525 61.5703 134.787 60.2617 135.376 58.8877C136.554 56.205 138.32 54.3075 140.872 53.2606C142.312 52.6717 143.751 52.41 145.256 52.41H145.714C147.742 52.41 149.378 52.7372 150.818 53.4569C151.93 54.0458 152.453 54.8964 152.453 56.2704C152.453 57.121 152.323 57.7099 151.995 58.1679C151.603 58.5605 151.276 58.7568 150.818 58.7568ZM167.372 73.0861C167.372 73.675 166.063 73.9367 163.38 73.9367H161.025L160.174 73.8713L158.735 73.8059C157.164 73.8059 156.379 73.5441 156.379 73.0207C156.379 72.6281 156.772 72.1701 157.426 71.7775C158.146 71.3195 158.604 70.7306 158.8 70.0109C159.127 69.2257 159.258 67.1974 159.258 63.6641C159.258 60.1308 159.127 58.0371 158.866 57.2519C158.669 56.5321 158.277 55.9433 157.819 55.6815C156.903 55.0927 156.445 54.6347 156.445 54.3729C156.445 54.1112 156.641 53.9149 156.968 53.6532C157.884 52.9989 159.389 52.7372 161.614 52.7372H162.072C162.857 52.7372 163.446 53.1297 163.838 54.0458C164.166 54.8309 164.427 55.289 164.689 55.289C164.885 55.289 165.278 55.0927 165.801 54.6347C166.325 54.2421 166.979 53.8495 167.764 53.4569C168.549 52.9989 169.4 52.8026 170.316 52.8026C171.232 52.8026 171.952 52.9989 172.41 53.5223C172.933 54.0458 173.195 54.6347 173.195 55.3544C173.13 56.1396 172.999 56.663 172.541 57.121C172.214 57.4482 171.821 57.7099 171.363 57.7099C170.905 57.7099 170.316 57.5136 169.596 57.121C168.877 56.7939 168.288 56.5976 167.764 56.5976C167.306 56.5976 166.783 56.7939 166.194 57.1865C165.605 57.579 165.147 58.2988 164.754 59.3457C164.296 60.3926 164.1 62.1592 164.1 64.711C164.1 67.1974 164.296 68.8331 164.624 69.5529C165.016 70.2726 165.54 70.9923 166.325 71.5812C167.044 72.1701 167.372 72.6281 167.372 73.0861ZM184.253 45.4744C184.253 46.1287 183.991 46.783 183.468 47.3064C182.879 47.8299 182.355 48.157 181.832 48.157C181.701 48.157 181.57 48.157 181.505 48.157L180.981 48.2224C180.261 48.2224 179.673 47.9607 179.084 47.5027C178.495 46.9793 178.168 46.325 178.168 45.6052V45.2126C178.168 44.4275 178.495 43.7732 179.084 43.2497C179.673 42.7263 180.392 42.53 181.178 42.53H181.308L182.028 42.5954C182.486 42.5954 183.01 42.7917 183.468 43.3151C183.991 43.8386 184.253 44.2966 184.253 44.82V45.0163V45.4744ZM177.252 55.3544C176.467 55.0272 176.074 54.6347 176.074 54.3075C176.074 54.0458 176.27 53.7186 176.532 53.5878C177.644 52.868 179.345 52.5409 181.701 52.5409H182.29C183.075 52.5409 183.533 52.9335 183.664 53.7186C183.729 54.0458 183.795 56.7939 183.795 61.7012C183.795 66.7393 183.86 69.5529 184.056 70.2726C184.253 70.9923 184.776 71.5812 185.561 71.9738C186.281 72.3664 186.739 72.759 186.739 73.1516C186.739 73.675 184.907 74.0022 181.243 74.0022H180.523H177.841C176.794 74.0022 176.27 73.7404 176.27 73.217C176.27 72.759 176.532 72.3664 177.252 71.9084C177.841 71.5158 178.299 71.0578 178.626 70.5998C178.887 70.0109 179.018 68.7023 179.018 66.7393L179.084 66.0196V65.2999V64.3184V63.5987V62.8789C179.084 59.4111 178.953 57.3827 178.757 56.7939C178.495 56.205 178.037 55.747 177.252 55.3544ZM206.237 69.7492C206.368 69.2257 206.434 67.1974 206.434 63.8604C206.434 60.5234 206.172 58.2988 205.649 57.2519C205.191 56.2704 204.144 55.747 202.77 55.747C201.919 55.747 201.068 56.0741 200.152 56.663C199.302 57.3827 198.713 58.1025 198.386 58.8877C198.124 59.6728 197.928 61.5703 197.928 64.4493C197.928 67.3282 197.928 69.1603 197.993 69.8146C198.059 70.5343 198.19 71.0578 198.32 71.4504L198.648 71.9738C198.844 72.4972 198.975 72.759 198.975 72.9553C198.975 73.5441 197.862 73.8059 195.572 73.8059C193.348 73.8059 191.908 73.5441 191.188 73.0861L190.796 72.6935C190.796 72.301 190.927 71.9084 191.254 71.6467C192.104 70.7306 192.628 70.0763 192.759 69.5529C192.955 69.0949 193.086 67.0011 193.086 63.3369C193.086 59.6074 192.759 57.121 192.104 56.0087L191.581 55.4198C191.254 54.8964 191.058 54.5692 191.058 54.3075C191.058 54.0458 191.319 53.7186 191.908 53.4569C192.432 53.0643 193.282 52.868 194.46 52.868C195.638 52.868 196.488 53.1952 197.077 53.8495C197.666 54.5038 198.124 54.7655 198.386 54.7655L199.04 54.5038L200.741 53.4569C202.115 52.7372 203.489 52.41 204.929 52.41C206.368 52.41 207.677 52.8026 208.986 53.6532C210.229 54.5038 211.079 54.9618 211.407 54.9618L212.126 54.6347L212.977 54.1112C213.631 53.7186 214.351 53.326 215.202 52.9989C215.987 52.6717 216.968 52.5409 218.211 52.5409C220.698 52.5409 222.333 53.5223 223.38 55.5507C224.1 56.9902 224.493 60.458 224.493 65.8887C224.493 68.2443 224.558 69.5529 224.689 70.0109C224.82 70.338 225.278 70.7961 225.867 71.3195C226.586 71.9084 226.914 72.1701 226.914 72.2355V72.759L226.456 73.217C225.736 73.6096 223.969 73.8059 221.025 73.8059C219.651 73.8059 218.931 73.4787 218.931 72.759C218.931 72.759 219.062 72.4318 219.258 71.8429C219.455 71.2541 219.585 70.7306 219.651 70.4035C219.651 70.0109 219.651 68.1788 219.651 64.7764C219.651 61.374 219.52 59.2148 219.193 58.3642C218.866 57.5136 218.473 56.8593 217.95 56.4013C217.426 55.9433 216.706 55.6815 215.66 55.6815C214.678 55.6815 213.827 55.9433 213.173 56.5321C212.453 57.0556 211.995 57.6445 211.668 58.2988C211.407 59.0185 211.276 60.9814 211.276 64.3838C211.276 67.7862 211.407 69.7492 211.537 70.2726C211.799 70.7961 212.126 71.3195 212.715 71.7775C213.304 72.301 213.631 72.6281 213.631 72.759C213.631 73.5441 212.257 73.8713 209.705 73.8713H206.63C205.06 73.8713 204.34 73.675 204.34 73.217C204.34 72.759 204.471 72.3664 204.863 71.9084C205.714 71.0578 206.172 70.338 206.237 69.7492ZM244.907 63.9913C246.085 65.1036 246.674 66.4776 246.674 68.1788C246.674 69.8146 245.954 71.3195 244.645 72.4972C243.206 73.675 241.308 74.3293 238.887 74.3293H238.233C235.485 74.3293 233.326 74.0022 231.886 73.2824C231.036 72.8898 230.643 72.0392 230.643 70.7306V70.1417C230.643 68.4405 230.97 67.5899 231.625 67.5899C232.148 67.5899 232.802 68.1134 233.457 69.0949C234.176 70.1417 234.831 70.7306 235.289 71.1232C236.205 71.7775 237.383 72.0392 238.626 72.0392C239.869 72.0392 240.85 71.7775 241.439 71.3195C242.094 70.7306 242.355 70.0109 242.355 69.0949C242.355 68.2443 241.832 67.4591 240.785 66.6739C240.261 66.2813 239.018 65.6925 236.99 64.8419C235.027 63.9258 233.522 63.0098 232.541 62.0938C231.494 61.1777 231.036 59.8691 231.036 58.1679C231.036 56.4013 231.755 55.0272 233.195 53.9803C234.569 52.868 236.336 52.3446 238.429 52.3446H239.084C241.832 52.3446 243.729 52.6717 244.842 53.326C245.431 53.6532 245.692 54.6347 245.692 56.1396C245.692 57.7099 245.365 58.4951 244.645 58.4951C244.187 58.4951 243.598 58.0371 242.879 57.121C242.159 56.205 241.505 55.4853 240.916 55.1581C240.327 54.7655 239.542 54.5692 238.495 54.5692C237.448 54.5692 236.663 54.7655 236.074 55.2235C235.42 55.747 235.158 56.4013 235.158 57.2519C235.158 58.1679 235.681 59.0185 236.794 59.6728C237.055 59.9345 238.299 60.458 240.458 61.4395C242.617 62.3555 244.122 63.2061 244.907 63.9913ZM255.245 62.4863V63.3369C255.245 65.8233 255.769 67.9171 256.75 69.5529C257.208 70.338 257.797 70.9923 258.517 71.4504C259.171 71.9084 259.891 72.1047 260.61 72.1047H261.068C262.443 72.1047 263.555 71.4504 264.536 70.1417C265.518 68.8331 266.041 67.0011 266.041 64.5801V63.0098C266.041 60.6543 265.518 58.6259 264.536 56.9902C263.555 55.3544 262.377 54.5038 260.872 54.5038H260.152C258.778 54.5038 257.601 55.2235 256.685 56.663C255.703 58.1679 255.245 60.0654 255.245 62.4863ZM271.341 62.6172V63.7295C271.341 64.9073 271.145 66.1505 270.621 67.5245C269.705 70.4035 267.677 72.4972 264.733 73.6096C263.489 74.133 262.181 74.3947 261.003 74.3947H260.283C257.47 74.3947 255.114 73.4133 253.217 71.5158C252.366 70.6652 251.712 69.5529 251.123 68.1134C250.6 66.7393 250.403 65.2344 250.403 63.6641V63.3369C250.403 61.832 250.6 60.3926 251.123 58.9531C252.104 56.0741 254.002 54.1112 256.881 52.9989C258.124 52.5409 259.367 52.2791 260.545 52.2791H261.657C262.966 52.2791 264.275 52.5409 265.518 53.1297C267.939 54.3075 269.574 56.0741 270.556 58.4951C271.079 59.9345 271.341 61.3086 271.341 62.6172ZM278.408 73.7404C276.379 73.7404 275.332 73.4133 275.332 72.8244C275.332 72.3664 275.594 71.9738 276.118 71.6467C277.099 71.1232 277.688 70.5998 277.884 70.1417C278.015 69.6837 278.08 67.5899 278.08 63.795C278.08 59.9345 278.015 57.7099 277.753 57.0556C277.492 56.4013 277.099 55.8124 276.51 55.4198C275.921 54.9618 275.594 54.6347 275.594 54.3729C275.594 54.1112 275.79 53.8495 276.183 53.5878C277.099 53.0643 278.604 52.8026 280.632 52.8026C281.221 52.8026 281.679 52.9989 282.006 53.4569C282.137 53.5878 282.268 53.9149 282.53 54.3729C282.726 54.8964 282.857 55.0927 282.988 55.0927C283.249 55.0927 283.642 54.8964 284.231 54.5038C286.259 53.1297 288.157 52.4754 289.793 52.4754H290.578C291.755 52.4754 292.802 52.7372 293.784 53.326C294.7 53.9149 295.485 54.8309 296.008 56.0087C296.532 57.1865 296.794 59.8037 296.794 63.7295C296.794 67.6554 296.925 69.88 297.055 70.4035C297.186 70.8615 297.71 71.2541 298.495 71.6467C299.28 72.0392 299.673 72.4972 299.673 72.8244C299.673 73.5441 297.579 73.8059 293.391 73.8059H292.737C291.428 73.8059 290.709 73.5441 290.709 72.8898C290.709 72.759 290.839 72.4318 291.232 71.9084C291.559 71.3849 291.755 70.8615 291.886 70.2072C292.017 69.6183 292.017 67.5899 292.017 64.0567C292.017 60.6543 291.821 58.4296 291.428 57.4482C290.839 56.0741 289.793 55.3544 288.484 55.3544C287.437 55.3544 286.521 55.6161 285.54 56.0741C284.624 56.5321 283.904 57.1865 283.511 58.0371C283.119 58.8877 282.857 60.9814 282.857 64.1221C282.857 67.3282 282.988 69.2911 283.184 70.0109C283.315 70.6652 283.577 71.1886 283.773 71.5812L284.624 72.9553C284.624 73.5441 283.446 73.8059 281.09 73.8059L279.782 73.7404H278.408Z" fill="#C02046"/>
<path d="M137.208 90.7524C136.75 90.7524 136.292 90.687 135.899 90.4253C135.441 90.229 135.245 89.9673 135.245 89.6401C135.245 89.313 135.376 89.1821 135.703 89.1821C135.899 89.1821 136.161 89.313 136.554 89.5747C136.881 89.8364 137.273 89.9673 137.666 89.9673C138.059 89.9673 138.386 89.8364 138.648 89.5093C138.909 89.1821 139.04 88.7895 139.04 88.3315C139.04 87.8081 138.844 87.4155 138.517 87.1537C138.386 86.9575 138.19 86.892 138.059 86.8266C137.862 86.7612 137.666 86.6957 137.47 86.6957C137.208 86.6303 137.077 86.5649 137.077 86.5649C136.946 86.4994 136.881 86.434 136.881 86.2377C136.881 86.1723 137.077 86.0414 137.47 85.8451C138.255 85.4525 138.648 84.9291 138.648 84.2748C138.648 83.8822 138.517 83.6205 138.386 83.4242C138.19 83.2279 137.928 83.1625 137.601 83.1625C137.273 83.1625 137.012 83.2933 136.685 83.4896C136.227 83.8822 135.965 84.0785 135.965 84.0785C135.638 84.0785 135.441 83.8822 135.441 83.5551C135.441 83.2279 135.703 82.9007 136.161 82.639C136.619 82.4427 137.077 82.3119 137.601 82.3119H137.797C138.255 82.3119 138.648 82.3773 138.975 82.5082C139.236 82.5736 139.498 82.7045 139.629 82.8353C139.891 83.097 140.022 83.4896 140.022 84.0131C140.022 84.2748 139.956 84.5365 139.825 84.7982C139.694 85.06 139.498 85.3217 139.236 85.5834C138.909 85.8451 138.778 86.0414 138.778 86.1069C138.778 86.1069 138.844 86.1069 139.04 86.1723C140.022 86.6957 140.48 87.35 140.48 88.2006C140.48 88.9858 140.218 89.5747 139.564 90.0327C138.975 90.5561 138.255 90.7524 137.404 90.7524H137.208ZM147.742 82.3773C147.546 82.3773 147.415 82.4427 147.415 82.5736C147.415 82.639 147.35 83.0316 147.35 83.7513V84.9291C147.35 85.1908 147.415 85.3871 147.415 85.3871C147.481 85.4525 147.612 85.518 147.873 85.518H148.135L148.528 85.4525C148.593 85.4525 148.593 85.4525 148.658 85.4525C149.051 85.4525 149.378 85.3217 149.64 85.06C149.902 84.7328 150.032 84.4057 150.032 83.9476V83.8168C150.032 83.3588 149.902 83.0316 149.574 82.7699C149.313 82.5082 148.986 82.3773 148.528 82.3773H148.397H148.266H147.873C147.808 82.3773 147.808 82.3773 147.742 82.3773ZM148.462 86.1069H147.939C147.612 86.1069 147.481 86.1723 147.415 86.2377C147.415 86.3686 147.35 86.6303 147.35 87.0229V88.7895C147.35 89.1821 147.415 89.4438 147.481 89.5093C147.612 89.5747 147.873 89.6401 148.266 89.6401H148.658C149.182 89.6401 149.64 89.5093 149.967 89.1821C150.294 88.9204 150.49 88.5278 150.49 88.0698V87.7426C150.49 87.2846 150.294 86.8266 149.902 86.5649C149.509 86.3031 149.051 86.1069 148.462 86.1069ZM148.331 81.723C149.836 81.723 150.752 82.1156 151.145 82.8353C151.276 83.097 151.407 83.4242 151.407 83.7513C151.407 84.1439 151.276 84.4711 151.145 84.7328C150.948 84.9945 150.818 85.1908 150.687 85.2563C150.556 85.3871 150.425 85.4525 150.294 85.518C150.163 85.6488 150.098 85.7143 150.098 85.7143C150.098 85.7143 150.229 85.8451 150.556 85.976C150.883 86.1723 151.21 86.3686 151.341 86.5649C151.734 86.9575 151.865 87.4155 151.865 87.8735V88.0043C151.865 88.7241 151.603 89.313 151.014 89.7055C150.818 89.9018 150.49 90.0327 150.098 90.1636C149.705 90.229 149.247 90.2944 148.724 90.2944H148.07H147.939C147.808 90.2944 147.742 90.2944 147.612 90.2944H147.415C147.35 90.2944 147.219 90.2944 147.088 90.2944H146.957C146.826 90.2944 146.761 90.2944 146.63 90.2944H146.172C145.452 90.2944 145.06 90.229 145.06 90.0981C145.06 89.9018 145.191 89.8364 145.387 89.7055C145.649 89.5747 145.779 89.3784 145.845 89.0512C145.91 88.7895 145.976 88.0698 145.976 87.0229V84.9945V84.3402C145.91 84.2094 145.91 84.0131 145.91 83.5551C145.91 83.1625 145.91 82.9007 145.845 82.7045C145.714 82.5736 145.583 82.4427 145.387 82.3119C145.125 82.2464 144.994 82.1156 144.994 82.0501C144.994 81.9193 145.06 81.8539 145.191 81.7884C145.321 81.7884 145.649 81.723 146.237 81.723H147.677H148.331ZM161.81 90.0327C161.81 90.229 161.548 90.2944 160.959 90.2944H160.632H160.371C159.782 90.2944 159.389 90.229 159.193 90.229C158.996 90.1636 158.931 90.0981 158.931 89.9673C158.931 89.9018 158.996 89.8364 159.127 89.6401C159.258 89.5093 159.324 89.313 159.389 89.0512C159.454 88.7895 159.52 88.2661 159.52 87.6118C159.52 86.9575 159.454 86.5649 159.324 86.434C159.127 86.2377 158.604 86.1723 157.557 86.1723C156.51 86.1723 155.921 86.3031 155.79 86.434C155.66 86.5649 155.594 86.9575 155.594 87.6772C155.594 88.3969 155.594 88.8549 155.66 89.0512C155.725 89.313 155.79 89.4438 155.856 89.5747L155.987 89.7055C156.118 89.8364 156.183 89.9673 156.183 89.9673C156.183 90.1636 156.052 90.229 155.79 90.229C155.66 90.229 155.201 90.2944 154.416 90.2944C153.631 90.2944 153.239 90.1636 153.239 89.9673C153.239 89.9018 153.369 89.7055 153.697 89.5093C153.893 89.3784 154.024 89.1821 154.089 88.9858C154.089 88.7241 154.155 87.7426 154.155 85.976C154.155 84.2748 154.089 83.2279 154.024 82.9662C153.958 82.7045 153.827 82.5082 153.566 82.3773C153.304 82.181 153.239 82.0501 153.239 81.9847C153.239 81.7884 153.697 81.723 154.743 81.723H155.332C155.921 81.723 156.183 81.7884 156.183 81.9847C156.183 82.0501 156.118 82.1156 155.987 82.3119C155.856 82.4427 155.725 82.7045 155.725 82.9662C155.66 83.1625 155.594 83.6205 155.594 84.1439C155.594 84.7328 155.66 85.1254 155.79 85.2563C155.987 85.3871 156.51 85.3871 157.557 85.3871C158.538 85.3871 159.127 85.3871 159.258 85.1908C159.389 85.1254 159.454 84.7328 159.454 84.1439C159.454 83.4896 159.389 83.097 159.389 82.9007C159.324 82.7699 159.258 82.5736 159.193 82.5082L159.062 82.3119C158.931 82.181 158.866 82.1156 158.866 82.0501C158.866 81.9193 158.996 81.7884 159.193 81.7884C159.389 81.7884 159.913 81.723 160.698 81.723C161.483 81.723 161.875 81.8539 161.875 81.9847C161.875 82.1156 161.81 82.2464 161.679 82.3119C161.287 82.5736 161.156 82.7045 161.09 82.7699C161.025 82.9662 161.025 83.6859 161.025 85.1254L160.959 88.1352C160.959 88.7241 161.025 89.1167 161.025 89.2475C161.09 89.4438 161.221 89.5093 161.352 89.6401C161.679 89.8364 161.81 89.9673 161.81 90.0327ZM165.998 86.434C165.67 86.434 165.54 86.892 165.54 87.8081C165.54 88.3315 165.54 88.6587 165.605 88.9858C165.67 89.2475 165.736 89.4438 165.801 89.5093L165.932 89.6401C165.998 89.771 166.063 89.8364 166.063 89.9018C166.063 90.0327 165.932 90.1636 165.736 90.1636C165.54 90.229 165.082 90.229 164.296 90.229C163.511 90.229 163.184 90.1636 163.184 90.0327C163.184 89.9018 163.249 89.771 163.511 89.6401C163.773 89.4438 163.904 89.1821 163.969 88.8549C163.969 88.5278 164.035 87.6118 164.035 85.976C164.035 84.3402 163.969 83.4242 163.904 83.097C163.904 82.7699 163.773 82.5736 163.577 82.3773L163.446 82.2464C163.315 82.1156 163.184 81.9847 163.184 81.9847C163.184 81.723 163.577 81.6576 164.362 81.6576H164.624H164.885C165.736 81.6576 166.128 81.723 166.128 81.9193C166.128 81.9847 166.063 82.1156 165.932 82.3119C165.801 82.4427 165.736 82.5736 165.67 82.7045C165.605 83.097 165.54 83.8168 165.54 84.8637C165.54 85.3217 165.605 85.518 165.801 85.518C165.867 85.518 165.998 85.4525 166.128 85.3217C166.521 84.9945 167.044 84.4711 167.568 83.8168C168.091 83.1625 168.353 82.7045 168.353 82.4427V82.3119V82.181L168.288 81.9847C168.288 81.8539 168.353 81.7884 168.549 81.723C168.68 81.723 169.007 81.6576 169.465 81.6576C170.185 81.6576 170.578 81.7884 170.578 81.9847C170.578 82.0501 170.381 82.2464 169.923 82.5082C169.531 82.8353 169.138 83.1625 168.746 83.5551C167.83 84.4711 167.437 85.1254 167.437 85.3871C167.437 85.5834 168.091 86.5649 169.4 88.2661C169.727 88.7241 170.12 89.1167 170.512 89.4438C170.839 89.771 171.036 89.9018 171.036 89.9673C171.036 90.1636 170.643 90.2944 169.923 90.2944H169.596C169.204 90.2944 168.942 90.229 168.811 90.0981C168.68 89.9673 168.549 89.771 168.419 89.5093C168.222 89.0512 167.83 88.3969 167.306 87.6118C166.717 86.7612 166.259 86.434 165.998 86.434ZM179.28 82.639C178.953 82.3773 178.56 82.3119 178.168 82.3119C177.71 82.3119 177.383 82.3773 177.121 82.639C176.859 82.8353 176.728 83.1625 176.728 83.5551C176.728 83.9476 176.925 84.2748 177.317 84.6019C177.579 84.7328 178.037 84.9945 178.757 85.3217C179.476 85.6488 180 85.9106 180.327 86.2377C180.85 86.6957 181.112 87.2192 181.112 87.8081V88.0043C181.112 88.7241 180.85 89.2475 180.327 89.7055C180.065 89.9018 179.738 90.0327 179.411 90.1636C179.018 90.2944 178.626 90.2944 178.299 90.2944H178.037C177.186 90.2944 176.466 90.229 175.812 89.9673C175.55 89.8364 175.354 89.5093 175.354 88.9858V88.7895C175.354 88.2006 175.485 87.8735 175.681 87.8735C175.812 87.8735 176.008 88.0698 176.27 88.4624C176.532 88.8549 176.794 89.1821 177.121 89.313C177.448 89.5093 177.841 89.6401 178.299 89.6401C178.757 89.6401 179.149 89.5093 179.411 89.2475C179.673 89.0512 179.803 88.7241 179.803 88.3969C179.803 87.8735 179.607 87.4809 179.149 87.1537C178.953 87.0229 178.495 86.7612 177.71 86.434C176.925 86.0414 176.401 85.7143 176.074 85.3871C175.681 84.9945 175.485 84.4711 175.485 83.8168C175.485 83.2279 175.681 82.7045 176.139 82.3119C176.336 82.1156 176.663 81.9193 177.055 81.7884C177.383 81.6576 177.775 81.5921 178.102 81.5921H178.364C178.495 81.5921 178.757 81.5921 179.018 81.6576L179.215 81.723C179.476 81.7884 179.607 81.7884 179.673 81.7884H179.869H180C180.196 81.8539 180.327 81.8539 180.392 81.8539C180.654 81.9847 180.719 82.3119 180.719 82.9007C180.719 83.4896 180.654 83.8168 180.392 83.8168C180.327 83.8168 180.131 83.6205 179.869 83.2933C179.673 82.9662 179.476 82.7699 179.28 82.639ZM187.59 87.6118C187.655 87.6118 188.048 86.8266 188.767 85.2563C189.487 83.6205 189.945 82.7045 190.142 82.4427C190.338 82.181 190.534 81.9847 190.73 81.9193C190.992 81.8539 191.319 81.7884 191.843 81.7884C192.301 81.7884 192.562 81.9193 192.562 82.1156L192.432 82.3119L192.235 82.5082C192.104 82.639 192.039 82.8353 191.974 83.0316C191.908 83.2933 191.908 83.6205 191.908 84.0785C191.908 86.1723 191.908 87.6772 192.039 88.5932C192.104 88.9858 192.235 89.2475 192.432 89.5093C192.693 89.7055 192.759 89.8364 192.759 89.9018L192.628 90.0327C192.432 90.0981 192.039 90.1636 191.45 90.1636C190.861 90.1636 190.534 90.0981 190.338 89.9018V89.771C190.338 89.6401 190.338 89.4438 190.469 89.0512C190.534 88.6587 190.6 88.3315 190.6 87.9389C190.6 85.2563 190.469 83.8822 190.338 83.8822C190.207 83.8822 189.814 84.7328 189.16 86.434C188.44 88.0698 188.048 89.0512 187.851 89.313C187.721 89.6401 187.524 89.771 187.263 89.771C187.066 89.771 186.543 88.7895 185.758 86.8266C184.972 84.8637 184.449 83.8822 184.318 83.8822C184.187 83.8822 184.187 84.8637 184.187 86.892C184.187 87.8081 184.187 88.3315 184.187 88.5278C184.253 88.7241 184.253 88.9858 184.384 89.2475C184.449 89.5747 184.449 89.771 184.449 89.8364C184.449 89.9018 184.384 90.0327 184.253 90.0981C184.122 90.1636 183.991 90.1636 183.795 90.1636H183.468C182.748 90.1636 182.421 90.0981 182.421 89.9018C182.421 89.8364 182.552 89.7055 182.748 89.5093C183.01 89.2475 183.14 89.1167 183.14 88.9858C183.206 88.8549 183.271 88.0698 183.337 86.7612C183.402 85.3871 183.402 84.5365 183.402 84.0131C183.402 83.5551 183.402 83.2279 183.337 83.0316C183.271 82.8353 183.14 82.639 182.944 82.4427C182.748 82.2464 182.617 82.1156 182.617 81.9847C182.617 81.8539 183.01 81.7884 183.795 81.7884C184.056 81.7884 184.318 81.8539 184.514 81.9193C184.776 81.9847 184.972 82.181 185.169 82.5082C185.365 82.7699 185.823 83.6859 186.477 85.2563C187.132 86.8266 187.524 87.6118 187.59 87.6118ZM198.778 86.6303V86.5649C198.778 86.1723 198.451 85.1908 197.797 83.6859C197.666 83.4242 197.601 83.2933 197.601 83.2933L197.404 83.6859C196.75 85.2563 196.423 86.2377 196.423 86.5649C196.423 86.6303 196.423 86.6957 196.488 86.6957C196.554 86.6957 196.619 86.6957 196.685 86.6957H197.143H197.601C198.386 86.6957 198.778 86.6957 198.778 86.6303ZM193.609 89.9018C193.609 89.771 193.74 89.6401 194.002 89.5093C194.198 89.3784 194.395 89.2475 194.525 88.9858C194.591 88.7895 194.787 88.4624 194.983 87.8735C195.18 87.35 195.441 86.6303 195.769 85.7797C196.161 84.9945 196.423 84.2094 196.619 83.5551C196.815 82.9007 196.946 82.5082 197.012 82.3119C197.208 81.9193 197.47 81.723 197.731 81.723H197.928C197.993 81.723 198.124 81.723 198.189 81.8539C198.451 81.9847 198.713 82.3773 198.909 82.9662C199.04 83.1625 199.171 83.4896 199.302 84.0131C199.498 84.4711 199.825 85.3871 200.349 86.7612C200.872 88.1352 201.199 88.9204 201.265 89.0512C201.33 89.2475 201.526 89.4438 201.723 89.5747C201.984 89.7055 202.115 89.771 202.115 89.9018C202.115 90.0327 202.05 90.1636 201.788 90.229C201.657 90.229 201.33 90.229 200.741 90.229H200.414C199.629 90.229 199.236 90.1636 199.236 89.9673C199.236 89.9018 199.302 89.8364 199.433 89.7055C199.498 89.5093 199.564 89.3784 199.564 89.1821C199.564 88.9204 199.498 88.5932 199.302 88.2006C199.171 87.8081 199.04 87.6118 198.909 87.4809C198.844 87.4155 198.386 87.35 197.601 87.35C196.815 87.35 196.357 87.4155 196.227 87.4809C196.096 87.5463 195.965 87.8081 195.769 88.1352C195.638 88.5278 195.572 88.8549 195.572 89.1167C195.572 89.313 195.638 89.5093 195.769 89.7055C195.899 89.9018 196.03 89.9673 196.03 89.9673C196.03 90.1636 195.769 90.229 195.245 90.229C194.722 90.229 194.329 90.229 194.067 90.1636C193.806 90.0981 193.609 90.0327 193.609 89.9018ZM205.321 83.2279V85.2563C205.321 85.5834 205.387 85.7797 205.452 85.8451C205.452 85.8451 205.649 85.9106 205.845 85.9106H206.107C206.761 85.9106 207.219 85.7797 207.546 85.4525C207.873 85.1254 208.004 84.7328 208.004 84.2748V84.0131C208.004 83.4896 207.873 83.097 207.546 82.7699C207.219 82.5082 206.826 82.3119 206.237 82.3119H205.91C205.649 82.3119 205.452 82.3773 205.387 82.4427C205.321 82.5736 205.321 82.7699 205.321 83.2279ZM206.434 81.6576C207.939 81.6576 208.855 82.1156 209.313 83.0316C209.444 83.2933 209.509 83.6205 209.509 84.0131C209.509 84.6674 209.182 85.2563 208.528 85.7797C208.2 86.1069 208.004 86.3031 208.004 86.4994C208.004 86.5649 208.2 86.9575 208.658 87.6118C209.051 88.3315 209.313 88.7895 209.509 88.9858C209.705 89.2475 209.967 89.4438 210.229 89.5093C210.49 89.6401 210.621 89.771 210.621 89.8364C210.621 90.1636 210.294 90.2944 209.705 90.2944C209.247 90.2944 208.855 90.1636 208.658 89.9673C208.528 89.771 208.2 89.2475 207.677 88.3969C207.219 87.5463 206.957 87.0883 206.892 87.0229C206.63 86.7612 206.303 86.6303 205.91 86.6303C205.714 86.6303 205.583 86.6957 205.518 86.8266C205.452 87.0229 205.387 87.4155 205.387 88.0043C205.387 88.5932 205.452 88.9858 205.518 89.1821C205.583 89.3784 205.714 89.5747 205.845 89.7055C206.041 89.9018 206.107 90.0327 206.107 90.0327C206.107 90.1636 205.845 90.229 205.321 90.229H205.125H204.929C204.863 90.229 204.733 90.229 204.536 90.229C203.555 90.229 203.031 90.1636 203.031 89.9673C203.031 89.8364 203.162 89.7055 203.293 89.5747C203.62 89.3784 203.817 89.2475 203.817 89.1821C203.947 89.0512 203.947 88.5932 203.947 87.8081L204.013 87.35V86.9575C204.013 86.7612 204.013 86.6303 204.013 86.4994L203.947 85.8451C203.947 84.2094 203.947 83.2279 203.882 82.9007C203.751 82.639 203.62 82.4427 203.424 82.3119C203.228 82.181 203.097 82.0501 203.097 81.9847C203.097 81.8539 203.424 81.723 204.078 81.723H204.275C204.471 81.723 204.602 81.723 204.733 81.723L205.976 81.6576H206.434Z" fill="#C02046"/>
<path d="M218.67 83.0316V83.2279C218.67 83.5551 218.539 83.6859 218.343 83.6859C218.277 83.6859 218.147 83.5551 217.95 83.2933C217.754 82.9662 217.558 82.7699 217.296 82.7045C217.1 82.5736 216.838 82.5082 216.511 82.5082C216.184 82.5082 215.987 82.5736 215.857 82.639C215.791 82.7045 215.726 82.8353 215.66 83.0316C215.66 83.2933 215.595 84.2748 215.595 85.976C215.595 87.7426 215.66 88.7241 215.726 88.9858C215.791 89.2475 215.922 89.4438 216.184 89.6401C216.445 89.8364 216.576 89.9673 216.576 90.0981C216.576 90.229 216.38 90.2944 215.987 90.2944L215.791 90.229H215.333C215.202 90.229 215.071 90.229 214.94 90.229H214.352C213.828 90.229 213.501 90.229 213.37 90.229C213.239 90.1636 213.174 90.0981 213.174 89.9673C213.174 89.9018 213.305 89.771 213.566 89.5747C213.828 89.4438 213.959 89.1821 214.024 88.9204C214.09 88.6587 214.155 87.6118 214.155 85.7797C214.155 84.0131 214.09 83.0316 214.09 82.8353C214.024 82.639 213.763 82.5082 213.37 82.5082C212.978 82.5082 212.65 82.5736 212.454 82.7045C212.258 82.8353 212.062 83.0316 211.865 83.3588C211.669 83.6205 211.473 83.7513 211.342 83.7513C211.211 83.7513 211.146 83.6859 211.146 83.4242V83.2279C211.146 82.3773 211.211 81.8539 211.342 81.7884C211.407 81.723 212.65 81.723 215.006 81.723L217.95 81.6576C218.212 81.6576 218.408 81.7884 218.539 81.9193C218.605 82.1156 218.67 82.4427 218.67 83.0316ZM225.017 83.2279V85.2563C225.017 85.5834 225.082 85.7797 225.148 85.8451C225.213 85.8451 225.344 85.9106 225.606 85.9106H225.867C226.456 85.9106 226.914 85.7797 227.241 85.4525C227.569 85.1254 227.765 84.7328 227.765 84.2748V84.0131C227.765 83.4896 227.569 83.097 227.241 82.7699C226.914 82.5082 226.522 82.3119 225.998 82.3119H225.606C225.344 82.3119 225.213 82.3773 225.148 82.4427C225.082 82.5736 225.017 82.7699 225.017 83.2279ZM226.129 81.6576C227.634 81.6576 228.616 82.1156 229.008 83.0316C229.139 83.2933 229.204 83.6205 229.204 84.0131C229.204 84.6674 228.877 85.2563 228.288 85.7797C227.896 86.1069 227.765 86.3031 227.765 86.4994C227.765 86.5649 227.961 86.9575 228.354 87.6118C228.746 88.3315 229.074 88.7895 229.27 88.9858C229.466 89.2475 229.662 89.4438 229.924 89.5093C230.186 89.6401 230.382 89.771 230.382 89.8364C230.382 90.1636 230.055 90.2944 229.401 90.2944C228.943 90.2944 228.616 90.1636 228.354 89.9673C228.223 89.771 227.896 89.2475 227.438 88.3969C226.914 87.5463 226.653 87.0883 226.587 87.0229C226.391 86.7612 226.064 86.6303 225.606 86.6303C225.409 86.6303 225.279 86.6957 225.213 86.8266C225.148 87.0229 225.082 87.4155 225.082 88.0043C225.082 88.5932 225.148 88.9858 225.213 89.1821C225.344 89.3784 225.409 89.5747 225.606 89.7055C225.737 89.9018 225.867 90.0327 225.867 90.0327C225.867 90.1636 225.606 90.229 225.082 90.229H224.821H224.624C224.559 90.229 224.428 90.229 224.232 90.229C223.25 90.229 222.792 90.1636 222.792 89.9673C222.792 89.8364 222.858 89.7055 222.988 89.5747C223.316 89.3784 223.512 89.2475 223.512 89.1821C223.643 89.0512 223.708 88.5932 223.708 87.8081V87.35V86.9575C223.708 86.7612 223.708 86.6303 223.708 86.4994V85.8451C223.708 84.2094 223.643 83.2279 223.577 82.9007C223.512 82.639 223.316 82.4427 223.119 82.3119C222.923 82.181 222.858 82.0501 222.858 81.9847C222.858 81.8539 223.185 81.723 223.839 81.723H224.035C224.166 81.723 224.297 81.723 224.428 81.723L225.737 81.6576H226.129ZM236.533 81.6576C237.318 81.6576 237.645 82.1156 237.645 82.9007C237.645 83.1625 237.645 83.2279 237.514 83.2279C237.449 83.2279 237.318 83.1625 237.122 83.0316C236.925 82.9662 236.794 82.8353 236.663 82.8353C236.075 82.639 235.551 82.5082 235.093 82.5082C234.635 82.5082 234.308 82.639 234.177 82.8353C233.915 83.1625 233.85 83.6859 233.85 84.5365C233.85 84.8637 233.915 85.06 234.112 85.1908C234.308 85.3217 234.57 85.3871 234.831 85.3871C235.093 85.3871 235.355 85.3217 235.617 85.1254C235.878 84.9945 236.009 84.8637 236.009 84.8637C236.205 84.8637 236.336 84.9945 236.402 85.1254C236.533 85.2563 236.533 85.518 236.533 85.9106C236.533 86.5649 236.402 86.8266 236.14 86.8266C236.009 86.8266 235.878 86.7612 235.617 86.5649C235.355 86.3686 235.093 86.2377 234.831 86.2377C234.373 86.2377 234.046 86.3686 233.915 86.5649C233.785 86.6957 233.719 87.0883 233.719 87.7426C233.719 88.3969 233.85 88.8549 234.112 89.1821C234.243 89.3784 234.57 89.4438 235.028 89.4438C235.551 89.4438 236.14 89.313 236.794 89.1167C236.991 89.0512 237.122 88.9858 237.252 88.9204C237.318 88.8549 237.449 88.7895 237.58 88.6587C237.71 88.5932 237.71 88.5278 237.776 88.5278C237.907 88.5278 237.972 88.5932 237.972 88.7241V88.9204C237.972 89.2475 237.907 89.5093 237.841 89.7055C237.71 89.9018 237.645 90.0327 237.514 90.0981C237.383 90.229 236.663 90.2944 235.486 90.2944H234.701H234.439C232.869 90.2944 232.018 90.229 231.756 90.229C231.494 90.1636 231.429 90.0981 231.429 89.9673C231.429 89.8364 231.494 89.7055 231.756 89.5747C231.952 89.4438 232.083 89.2475 232.149 89.0512C232.214 88.8549 232.28 87.9389 232.28 86.4994V84.0785C232.28 83.2933 232.214 82.7699 232.149 82.639C232.083 82.5082 231.952 82.4427 231.756 82.3119C231.56 82.181 231.429 82.1156 231.429 82.0501C231.429 81.8539 231.56 81.723 231.822 81.723C231.952 81.723 232.803 81.6576 234.439 81.6576H236.336H236.533ZM243.207 82.639C242.879 82.3773 242.487 82.3119 242.094 82.3119C241.636 82.3119 241.309 82.3773 241.047 82.639C240.786 82.8353 240.655 83.1625 240.655 83.5551C240.655 83.9476 240.851 84.2748 241.244 84.6019C241.505 84.7328 241.963 84.9945 242.683 85.3217C243.468 85.6488 243.926 85.9106 244.253 86.2377C244.777 86.6957 245.039 87.2192 245.039 87.8081V88.0043C245.039 88.7241 244.777 89.2475 244.253 89.7055C243.992 89.9018 243.665 90.0327 243.337 90.1636C242.945 90.2944 242.552 90.2944 242.225 90.2944H241.963C241.113 90.2944 240.393 90.229 239.739 89.9673C239.477 89.8364 239.346 89.5093 239.346 88.9858V88.7895C239.346 88.2006 239.412 87.8735 239.608 87.8735C239.804 87.8735 240 88.0698 240.197 88.4624C240.458 88.8549 240.786 89.1821 241.047 89.313C241.375 89.5093 241.767 89.6401 242.225 89.6401C242.683 89.6401 243.076 89.5093 243.337 89.2475C243.599 89.0512 243.73 88.7241 243.73 88.3969C243.73 87.8735 243.534 87.4809 243.076 87.1537C242.879 87.0229 242.421 86.7612 241.636 86.434C240.851 86.0414 240.328 85.7143 240 85.3871C239.608 84.9945 239.412 84.4711 239.412 83.8168C239.412 83.2279 239.608 82.7045 240.066 82.3119C240.328 82.1156 240.589 81.9193 240.982 81.7884C241.309 81.6576 241.702 81.5921 242.094 81.5921H242.291C242.487 81.5921 242.683 81.5921 242.945 81.6576L243.207 81.723C243.468 81.7884 243.599 81.7884 243.599 81.7884H243.795H243.992C244.123 81.8539 244.253 81.8539 244.319 81.8539C244.581 81.9847 244.711 82.3119 244.711 82.9007C244.711 83.4896 244.581 83.8168 244.319 83.8168C244.253 83.8168 244.057 83.6205 243.861 83.2933C243.599 82.9662 243.403 82.7699 243.207 82.639ZM249.684 81.9193C249.684 81.9847 249.553 82.1156 249.292 82.3119C249.095 82.4427 248.964 82.639 248.899 82.9007C248.834 83.1625 248.768 84.2094 248.768 85.976C248.768 87.8081 248.834 88.8549 248.899 89.1167C248.964 89.3784 249.095 89.5747 249.357 89.7055C249.553 89.8364 249.684 89.9018 249.684 90.0327C249.684 90.229 249.488 90.2944 249.095 90.2944H249.03L248.703 90.229C248.637 90.229 248.506 90.229 248.441 90.229H248.179H247.329C246.674 90.229 246.347 90.1636 246.347 90.0327V89.9673C246.347 89.9018 246.478 89.771 246.74 89.6401C247.002 89.5093 247.132 89.2475 247.198 88.9858C247.263 88.7241 247.329 87.6772 247.329 85.976C247.329 84.2094 247.263 83.2279 247.198 82.9662C247.132 82.639 247.002 82.4427 246.805 82.3773C246.478 82.181 246.347 82.0501 246.347 81.9847C246.347 81.7884 246.936 81.723 248.245 81.723H248.899H249.292C249.553 81.723 249.684 81.7884 249.684 81.9193ZM254.395 82.3119H254.134C253.675 82.3119 253.414 82.4427 253.348 82.639C253.348 82.7045 253.283 83.2933 253.283 84.4057V86.7612V87.0229C253.283 87.1537 253.283 87.2192 253.283 87.35V87.6772C253.283 87.7426 253.283 87.8735 253.283 87.9389V88.3315V88.6587C253.283 89.1167 253.348 89.3784 253.479 89.4438C253.61 89.5747 253.872 89.5747 254.33 89.5747H254.461C255.311 89.5747 255.966 89.313 256.489 88.7241C256.751 88.4624 256.947 88.0698 257.078 87.6118C257.274 87.1537 257.34 86.6957 257.34 86.2377V85.7797C257.34 85.3871 257.274 84.9291 257.143 84.4711C256.882 83.4896 256.293 82.9007 255.508 82.5736C255.18 82.3773 254.853 82.3119 254.395 82.3119ZM254.264 81.6576H254.592C256.62 81.6576 257.994 82.5082 258.648 84.0785C258.845 84.6019 258.975 85.1254 258.975 85.7797V85.9106C258.975 86.6303 258.845 87.2192 258.648 87.7426C258.19 88.7895 257.405 89.5747 256.293 89.9673C255.769 90.1636 255.18 90.2944 254.592 90.2944H254.134H253.937H253.675C253.545 90.2944 253.479 90.2944 253.348 90.2944L252.432 90.229C251.516 90.229 251.058 90.1636 251.058 90.0327C251.058 89.9018 251.124 89.771 251.32 89.7055C251.647 89.5747 251.778 89.4438 251.843 89.313C251.974 89.1821 251.974 88.7241 251.974 88.0698V85.1254V84.3402V83.6859C251.974 83.1625 251.909 82.8353 251.843 82.639C251.713 82.5082 251.582 82.3773 251.385 82.3119C251.124 82.2464 251.058 82.1156 251.058 81.9847C251.058 81.8539 251.385 81.7884 251.974 81.7884L252.563 81.723H252.759H252.89C253.741 81.6576 254.199 81.6576 254.264 81.6576ZM265.518 81.6576C266.238 81.6576 266.565 82.1156 266.565 82.9007C266.565 83.1625 266.565 83.2279 266.434 83.2279C266.369 83.2279 266.238 83.1625 266.107 83.0316C265.911 82.9662 265.715 82.8353 265.584 82.8353C264.995 82.639 264.472 82.5082 264.014 82.5082C263.556 82.5082 263.294 82.639 263.098 82.8353C262.836 83.1625 262.77 83.6859 262.77 84.5365C262.77 84.8637 262.836 85.06 263.032 85.1908C263.228 85.3217 263.49 85.3871 263.752 85.3871C264.014 85.3871 264.275 85.3217 264.537 85.1254C264.799 84.9945 264.93 84.8637 264.93 84.8637C265.126 84.8637 265.257 84.9945 265.388 85.1254C265.453 85.2563 265.518 85.518 265.518 85.9106C265.518 86.5649 265.322 86.8266 265.06 86.8266C264.995 86.8266 264.799 86.7612 264.537 86.5649C264.341 86.3686 264.079 86.2377 263.752 86.2377C263.294 86.2377 262.967 86.3686 262.836 86.5649C262.705 86.6957 262.705 87.0883 262.705 87.7426C262.705 88.3969 262.836 88.8549 263.032 89.1821C263.163 89.3784 263.49 89.4438 263.948 89.4438C264.472 89.4438 265.06 89.313 265.715 89.1167C265.911 89.0512 266.042 88.9858 266.173 88.9204C266.238 88.8549 266.369 88.7895 266.5 88.6587C266.631 88.5932 266.696 88.5278 266.696 88.5278C266.827 88.5278 266.893 88.5932 266.893 88.7241V88.9204C266.893 89.2475 266.893 89.5093 266.762 89.7055C266.631 89.9018 266.565 90.0327 266.434 90.0981C266.304 90.229 265.584 90.2944 264.472 90.2944H263.621H263.359C261.789 90.2944 260.938 90.229 260.677 90.229C260.415 90.1636 260.349 90.0981 260.349 89.9673C260.349 89.8364 260.415 89.7055 260.677 89.5747C260.873 89.4438 261.004 89.2475 261.069 89.0512C261.135 88.8549 261.2 87.9389 261.2 86.4994V84.0785C261.2 83.2933 261.135 82.7699 261.069 82.639C261.004 82.5082 260.873 82.4427 260.677 82.3119C260.48 82.181 260.349 82.1156 260.349 82.0501C260.349 81.8539 260.48 81.723 260.742 81.723C260.873 81.723 261.789 81.6576 263.359 81.6576H265.257H265.518ZM275.857 88.7241C275.857 89.4438 275.857 89.8364 275.791 89.9673C275.726 90.0981 275.66 90.1636 275.464 90.1636C275.137 90.1636 274.744 89.8364 274.221 89.2475L274.024 88.9858C273.632 88.5278 273.239 88.0043 272.912 87.4809C272.52 86.892 272.258 86.5649 272.127 86.3686C270.884 84.6019 270.164 83.6859 270.033 83.6859C269.968 83.6859 269.968 84.4057 269.968 85.8451C269.968 87.2846 270.033 88.3315 270.099 88.9204C270.164 89.1167 270.229 89.313 270.36 89.5093C270.491 89.771 270.622 89.9018 270.622 89.9673C270.622 90.0981 270.164 90.229 269.313 90.229H269.052C268.463 90.229 268.201 90.1636 268.201 89.9673C268.201 89.8364 268.332 89.7055 268.594 89.5747C268.79 89.4438 268.986 89.2475 269.052 88.9858C269.117 88.7241 269.117 87.8735 269.117 86.434L269.183 85.4525L269.117 84.6019C269.117 83.6859 269.117 83.1625 268.986 82.8353C268.921 82.7045 268.79 82.5736 268.594 82.3773C268.332 82.2464 268.201 82.1156 268.201 82.1156C268.201 81.8539 268.463 81.7884 268.855 81.7884C269.313 81.7884 269.641 81.7884 269.968 81.9193C270.164 82.0501 270.426 82.181 270.622 82.3773C270.818 82.5736 271.276 83.097 271.931 83.9476C272.585 84.8637 273.043 85.4525 273.305 85.8451L273.828 86.5649C274.417 87.4155 274.81 87.8081 274.81 87.8081C274.94 87.8081 275.006 87.0883 275.006 85.7143C275.006 84.2748 275.006 83.3588 274.94 83.097C274.875 82.7699 274.744 82.5736 274.548 82.3773C274.417 82.181 274.286 82.0501 274.286 82.0501C274.286 81.8539 274.548 81.723 274.94 81.723H275.529C276.053 81.723 276.445 81.7884 276.576 81.8539C276.707 81.9193 276.773 81.9847 276.773 82.1156C276.773 82.1156 276.576 82.3119 276.249 82.5736C276.118 82.7699 275.987 82.9662 275.922 83.2279C275.857 83.4896 275.857 84.3402 275.857 85.9106V87.0883V88.7241ZM282.007 81.5921H282.203C282.53 81.5921 282.858 81.6576 283.25 81.723C283.577 81.7884 283.904 81.8539 284.101 81.8539C284.297 81.8539 284.493 81.9193 284.624 81.9847C284.821 82.1156 284.951 82.4427 284.951 83.0316C284.951 83.6205 284.886 83.8822 284.624 83.8822C284.559 83.8822 284.428 83.7513 284.101 83.4242C283.839 83.097 283.577 82.9007 283.316 82.7045C282.923 82.5082 282.4 82.3773 281.876 82.3773C281.549 82.3773 281.222 82.4427 280.895 82.639C279.913 83.1625 279.455 84.2748 279.455 85.976C279.455 87.0883 279.717 87.9389 280.175 88.5932C280.698 89.2475 281.353 89.5747 282.269 89.5747C282.988 89.5747 283.643 89.313 284.166 88.7895C284.493 88.5278 284.69 88.3315 284.755 88.3315C284.951 88.3315 285.017 88.4624 285.017 88.7241C285.017 88.8549 284.951 89.0512 284.821 89.313C284.624 89.5747 284.428 89.771 284.232 89.9018C283.708 90.229 282.988 90.3599 282.072 90.3599H281.876C281.353 90.3599 280.895 90.2944 280.371 90.0981C279.324 89.7055 278.605 88.9858 278.212 87.9389C278.016 87.35 277.885 86.7612 277.885 86.1069C277.885 85.3871 278.016 84.7982 278.212 84.2094C278.67 83.097 279.39 82.3119 280.371 81.9193C280.895 81.723 281.484 81.5921 282.007 81.5921ZM291.494 81.6576C292.214 81.6576 292.607 82.1156 292.607 82.9007C292.607 83.1625 292.541 83.2279 292.476 83.2279C292.41 83.2279 292.28 83.1625 292.083 83.0316C291.887 82.9662 291.691 82.8353 291.56 82.8353C290.971 82.639 290.513 82.5082 290.055 82.5082C289.597 82.5082 289.27 82.639 289.139 82.8353C288.877 83.1625 288.746 83.6859 288.746 84.5365C288.746 84.8637 288.877 85.06 289.074 85.1908C289.27 85.3217 289.466 85.3871 289.728 85.3871C289.99 85.3871 290.251 85.3217 290.578 85.1254C290.84 84.9945 290.971 84.8637 290.971 84.8637C291.167 84.8637 291.298 84.9945 291.364 85.1254C291.429 85.2563 291.494 85.518 291.494 85.9106C291.494 86.5649 291.364 86.8266 291.036 86.8266C290.971 86.8266 290.84 86.7612 290.578 86.5649C290.317 86.3686 290.055 86.2377 289.793 86.2377C289.335 86.2377 289.008 86.3686 288.877 86.5649C288.746 86.6957 288.681 87.0883 288.681 87.7426C288.681 88.3969 288.812 88.8549 289.008 89.1821C289.204 89.3784 289.466 89.4438 289.99 89.4438C290.448 89.4438 291.036 89.313 291.691 89.1167C291.887 89.0512 292.018 88.9858 292.149 88.9204C292.28 88.8549 292.345 88.7895 292.476 88.6587C292.607 88.5932 292.672 88.5278 292.738 88.5278C292.869 88.5278 292.934 88.5932 292.934 88.7241V88.9204C292.934 89.2475 292.869 89.5093 292.738 89.7055C292.672 89.9018 292.541 90.0327 292.476 90.0981C292.28 90.229 291.625 90.2944 290.448 90.2944H289.662H289.401C287.83 90.2944 286.914 90.229 286.718 90.229C286.456 90.1636 286.325 90.0981 286.325 89.9673C286.325 89.8364 286.456 89.7055 286.653 89.5747C286.914 89.4438 287.045 89.2475 287.111 89.0512C287.176 88.8549 287.176 87.9389 287.176 86.4994L287.241 84.0785C287.241 83.2933 287.176 82.7699 287.045 82.639C287.045 82.5082 286.914 82.4427 286.718 82.3119C286.522 82.181 286.391 82.1156 286.391 82.0501C286.391 81.8539 286.522 81.723 286.783 81.723C286.914 81.723 287.765 81.6576 289.401 81.6576H291.233H291.494ZM298.168 82.639C297.841 82.3773 297.449 82.3119 297.056 82.3119C296.598 82.3119 296.271 82.3773 296.009 82.639C295.747 82.8353 295.617 83.1625 295.617 83.5551C295.617 83.9476 295.813 84.2748 296.205 84.6019C296.402 84.7328 296.925 84.9945 297.645 85.3217C298.365 85.6488 298.888 85.9106 299.215 86.2377C299.739 86.6957 300 87.2192 300 87.8081V88.0043C300 88.7241 299.739 89.2475 299.215 89.7055C298.954 89.9018 298.626 90.0327 298.234 90.1636C297.907 90.2944 297.514 90.2944 297.122 90.2944H296.925C296.075 90.2944 295.355 90.229 294.701 89.9673C294.373 89.8364 294.243 89.5093 294.243 88.9858V88.7895C294.243 88.2006 294.373 87.8735 294.57 87.8735C294.701 87.8735 294.897 88.0698 295.159 88.4624C295.42 88.8549 295.682 89.1821 296.009 89.313C296.336 89.5093 296.729 89.6401 297.187 89.6401C297.645 89.6401 297.972 89.5093 298.299 89.2475C298.561 89.0512 298.692 88.7241 298.692 88.3969C298.692 87.8735 298.496 87.4809 298.038 87.1537C297.841 87.0229 297.318 86.7612 296.533 86.434C295.813 86.0414 295.224 85.7143 294.962 85.3871C294.57 84.9945 294.373 84.4711 294.373 83.8168C294.373 83.2279 294.57 82.7045 295.028 82.3119C295.224 82.1156 295.551 81.9193 295.878 81.7884C296.271 81.6576 296.663 81.5921 296.991 81.5921H297.252C297.383 81.5921 297.58 81.5921 297.907 81.6576L298.103 81.723C298.365 81.7884 298.496 81.7884 298.496 81.7884H298.692H298.888C299.084 81.8539 299.215 81.8539 299.281 81.8539C299.542 81.9847 299.608 82.3119 299.608 82.9007C299.608 83.4896 299.542 83.8168 299.281 83.8168C299.15 83.8168 299.019 83.6205 298.757 83.2933C298.561 82.9662 298.365 82.7699 298.168 82.639Z" fill="#C02046"/>
</svg>
