<?xml version="1.0" encoding="UTF-8"?>
<!DOCTYPE svg PUBLIC "-//W3C//DTD SVG 1.1//EN" "http://www.w3.org/Graphics/SVG/1.1/DTD/svg11.dtd">
<!-- Creator: CorelDRAW X8 -->
<svg xmlns="http://www.w3.org/2000/svg" xml:space="preserve" width="4.528in" height="1.296in" version="1.1" style="shape-rendering:geometricPrecision; text-rendering:geometricPrecision; image-rendering:optimizeQuality; fill-rule:evenodd; clip-rule:evenodd"
viewBox="0 0 4528 1296"
 xmlns:xlink="http://www.w3.org/1999/xlink">
 <defs>
  <style type="text/css">
   <![CDATA[
    .fil0 {fill:#ffffff;fill-rule:nonzero}
    .fil1 {fill:#C72968;fill-rule:nonzero}
   ]]>
  </style>
 </defs>
 <g id="Layer_x0020_1">
  <metadata id="CorelCorpID_0Corel-Layer"/>
  <g id="_3022361833904">
   <polygon class="fil0" points="421,194 421,28 351,28 351,3 519,3 519,28 448,28 448,194 "/>
   <path id="1" class="fil0" d="M534 194l0 -191 56 0c20,0 34,5 45,14 11,9 16,22 16,39 0,12 -3,22 -9,30 -6,7 -15,13 -27,17 3,2 6,4 9,7 3,3 6,8 11,14l46 70 -33 0 -33 -50c-10,-15 -18,-25 -24,-29 -6,-4 -13,-6 -21,-6l-8 0 0 85 -28 0zm28 -108l22 0c13,0 23,-2 29,-7 6,-5 9,-13 9,-23 0,-10 -3,-18 -9,-22 -6,-5 -15,-7 -29,-7l-22 0 0 59z"/>
   <polygon id="2" class="fil0" points="687,194 687,3 714,3 714,194 "/>
   <polygon id="3" class="fil0" points="749,194 749,3 773,3 842,83 911,3 935,3 935,194 908,194 908,45 842,122 776,45 776,194 "/>
   <path id="4" class="fil0" d="M968 3l27 0 0 110c0,12 1,21 2,26 2,5 4,9 7,13 6,7 12,11 20,15 8,3 17,5 27,5 16,0 30,-5 40,-13 10,-9 15,-20 15,-34l0 -122 27 0 0 123c0,21 -8,38 -23,51 -15,14 -35,20 -59,20 -15,0 -28,-2 -40,-7 -11,-6 -21,-13 -29,-23 -5,-6 -9,-12 -11,-20 -2,-7 -3,-18 -3,-33l0 -111z"/>
   <path id="5" class="fil0" d="M1166 194l0 -191 56 0c20,0 35,5 45,14 11,9 16,22 16,39 0,12 -3,22 -9,30 -6,7 -15,13 -27,17 3,2 6,4 9,7 3,3 6,8 11,14l46 70 -33 0 -33 -50c-9,-15 -17,-25 -23,-29 -7,-4 -14,-6 -22,-6l-8 0 0 85 -28 0zm28 -108l22 0c13,0 23,-2 29,-7 6,-5 10,-13 10,-23 0,-10 -3,-18 -10,-22 -6,-5 -15,-7 -29,-7l-22 0 0 59z"/>
   <polygon id="6" class="fil0" points="1370,194 1370,28 1300,28 1300,3 1468,3 1468,28 1397,28 1397,194 "/>
   <polygon id="7" class="fil0" points="1529,194 1529,99 1455,3 1488,3 1544,76 1601,3 1634,3 1557,100 1557,194 "/>
   <path id="8" class="fil0" d="M1648 33c-5,-2 -8,-4 -10,-7 -2,-3 -2,-6 -2,-10 0,-4 1,-8 4,-11 3,-3 7,-5 11,-5 5,0 10,2 13,7 4,5 6,11 6,19 0,10 -3,18 -9,25 -6,8 -14,13 -24,16l0 -5c3,-3 6,-6 8,-11 2,-4 3,-9 3,-14l0 -4z"/>
   <path id="9" class="fil0" d="M1687 185l0 -26c7,4 15,8 22,11 7,3 13,4 19,4 6,0 11,-1 15,-4 4,-2 6,-5 6,-10 0,-5 -7,-11 -21,-18 -4,-2 -7,-3 -9,-4 -12,-6 -20,-12 -25,-18 -4,-5 -6,-12 -6,-20 0,-11 4,-19 11,-25 8,-7 18,-10 31,-10 8,0 14,1 21,3 7,2 13,4 19,8l0 24c-7,-4 -15,-7 -21,-9 -6,-2 -12,-3 -18,-3 -5,0 -10,1 -12,2 -3,2 -5,5 -5,8 0,7 9,14 27,23l2 1c14,7 23,13 27,18 4,5 6,12 6,20 0,11 -4,20 -12,26 -9,7 -20,10 -33,10 -8,0 -16,0 -23,-2 -7,-2 -14,-5 -21,-9z"/>
   <path class="fil0" d="M2409 1285l0 -29c7,4 15,7 22,9 6,1 13,2 19,2 10,0 18,-2 23,-8 6,-5 9,-13 9,-22 0,-10 -4,-17 -10,-22 -7,-6 -17,-9 -31,-9l0 -24c12,0 21,-3 28,-9 7,-5 11,-12 11,-22 0,-8 -3,-15 -10,-20 -6,-5 -15,-7 -25,-7 -4,0 -9,0 -13,1 -5,2 -12,4 -20,7l0 -24c7,-3 13,-6 19,-7 6,-2 12,-2 18,-2 18,0 32,4 42,14 11,9 16,21 16,36 0,9 -2,17 -6,24 -4,7 -10,13 -17,18 8,4 15,10 20,18 5,8 7,17 7,27 0,18 -6,32 -17,43 -11,11 -26,17 -45,17 -6,0 -13,-1 -19,-3 -7,-2 -14,-4 -21,-8z"/>
   <path id="1" class="fil0" d="M2701 1246l-32 -38c-13,8 -23,15 -28,21 -5,5 -8,11 -8,17 0,7 2,13 7,17 5,4 11,6 19,6 6,0 12,-2 19,-5 6,-4 14,-10 23,-18zm-25 -69c10,-7 17,-13 21,-18 5,-6 7,-11 7,-17 0,-6 -3,-11 -7,-15 -4,-4 -10,-6 -17,-6 -7,0 -12,2 -17,6 -4,4 -6,9 -6,14 0,5 1,10 5,16 3,7 8,13 14,20zm100 116l-35 0 -23 -28c-10,11 -19,19 -29,23 -10,5 -21,8 -32,8 -16,0 -29,-5 -38,-13 -10,-9 -15,-21 -15,-35 0,-11 4,-21 11,-30 8,-9 20,-18 38,-28 -8,-8 -14,-15 -18,-23 -3,-7 -5,-15 -5,-23 0,-14 5,-25 14,-33 9,-8 21,-12 35,-12 15,0 27,4 36,12 9,7 14,18 14,30 0,11 -3,20 -9,29 -5,8 -15,16 -27,24l28 32c3,-4 7,-8 10,-14 4,-5 7,-11 10,-18l29 0c-3,10 -8,19 -13,28 -6,8 -12,17 -19,25l38 46z"/>
   <path id="2" class="fil0" d="M2926 1293l0 -64 -82 0 0 -11 97 -119 12 0 0 107 21 0 0 23 -21 0 0 64 -27 0zm0 -87l1 -57 -46 57 45 0z"/>
   <path id="3" class="fil0" d="M3096 1209l0 59 36 0c14,0 23,-3 29,-7 7,-5 10,-12 10,-22 0,-11 -4,-18 -11,-23 -7,-5 -17,-7 -32,-7l-32 0zm-27 84l0 -191 56 0c19,0 34,4 44,13 10,9 15,21 15,37 0,10 -2,18 -7,24 -4,7 -11,12 -21,15 14,4 25,10 32,18 8,9 12,19 12,32 0,15 -6,28 -18,37 -11,10 -27,15 -47,15l-66 0zm27 -109l18 0c14,0 25,-3 31,-8 7,-5 11,-12 11,-23 0,-9 -3,-16 -8,-20 -6,-4 -14,-6 -26,-6l-26 0 0 57z"/>
   <path id="4" class="fil0" d="M3224 1293l0 -191 56 0c19,0 34,5 45,14 10,9 16,22 16,38 0,13 -3,23 -9,30 -6,8 -15,14 -27,18 3,1 6,4 9,7 3,2 6,7 11,14l46 70 -33 0 -33 -50c-10,-15 -18,-25 -24,-29 -6,-4 -13,-7 -21,-7l-9 0 0 86 -27 0zm27 -108l23 0c13,0 22,-3 29,-8 6,-5 9,-12 9,-22 0,-11 -3,-18 -9,-23 -6,-4 -15,-7 -29,-7l-23 0 0 60z"/>
   <polygon id="5" class="fil0" points="3447,1293 3447,1102 3474,1102 3474,1184 3584,1184 3584,1102 3612,1102 3612,1293 3584,1293 3584,1210 3474,1210 3474,1293 "/>
   <path id="6" class="fil0" d="M3665 1197c0,10 1,19 5,28 4,9 9,17 16,24 6,6 14,12 23,15 9,4 19,6 28,6 10,0 20,-2 29,-5 8,-4 16,-9 23,-16 7,-7 12,-15 16,-24 4,-9 6,-18 6,-28 0,-9 -2,-18 -6,-27 -3,-9 -9,-17 -16,-24 -7,-7 -15,-12 -24,-16 -8,-3 -18,-5 -28,-5 -9,0 -18,2 -27,5 -9,4 -17,9 -24,16 -7,7 -12,15 -16,23 -4,9 -5,19 -5,28zm-30 -1c0,-12 3,-25 8,-37 5,-12 13,-22 22,-31 10,-10 21,-17 33,-22 13,-5 26,-7 39,-7 14,0 27,2 40,7 12,5 23,12 33,22 10,9 17,20 22,32 5,12 8,24 8,38 0,13 -3,26 -8,38 -5,12 -12,22 -22,31 -10,10 -21,17 -33,22 -13,4 -26,7 -40,7 -13,0 -26,-3 -39,-8 -12,-5 -23,-12 -33,-21 -10,-9 -17,-20 -22,-32 -5,-12 -8,-25 -8,-39z"/>
   <polygon id="7" class="fil0" points="3864,1293 3864,1102 3887,1102 3956,1182 4025,1102 4049,1102 4049,1293 4023,1293 4023,1144 3956,1221 3890,1144 3890,1293 "/>
   <polygon id="8" class="fil0" points="4083,1293 4083,1102 4199,1102 4199,1126 4111,1126 4111,1184 4196,1184 4196,1209 4111,1209 4111,1268 4202,1268 4202,1293 "/>
   <path id="9" class="fil0" d="M4219 1278l0 -36c9,10 17,17 25,21 8,4 17,7 26,7 9,0 17,-3 22,-7 5,-4 8,-10 8,-18 0,-6 -2,-11 -5,-16 -4,-5 -13,-12 -27,-20 -21,-14 -35,-25 -41,-33 -5,-7 -8,-16 -8,-27 0,-15 5,-27 16,-36 11,-10 24,-15 41,-15 7,0 14,2 22,4 7,2 14,5 21,10l0 31c-8,-7 -16,-12 -23,-15 -7,-3 -14,-5 -21,-5 -9,0 -16,2 -21,7 -6,4 -8,9 -8,16 0,9 11,21 33,35l4 2c19,12 31,22 37,30 5,9 8,20 8,33 0,14 -5,26 -16,36 -10,9 -24,14 -41,14 -10,0 -19,-2 -28,-4 -8,-3 -16,-8 -24,-14z"/>
   <path class="fil1" d="M1041 1120c-9,9 -25,16 -49,22 -25,7 -53,7 -85,3 -40,-7 -79,-27 -113,-60 -35,-32 -74,-87 -115,-165 -10,-15 -27,-49 -50,-97 -25,-49 -42,-81 -50,-96 -46,-89 -91,-147 -132,-175 -7,-4 -20,-11 -36,-18 15,-12 40,-36 75,-72 2,-3 8,-10 16,-21 9,-9 16,-16 20,-20 4,-5 9,-10 18,-17 8,-7 16,-11 26,-14 10,-1 20,-3 32,-4l0 -17 -28 0 -93 3c-11,0 -26,0 -44,-1 -18,0 -35,0 -49,-2 -13,0 -20,0 -22,0l-4 0 0 17 6 0c32,0 52,8 62,26 10,18 11,39 3,60 -10,22 -22,41 -40,57 -14,-4 -31,-6 -52,-6 -59,0 -109,24 -150,71l0 -79c0,-178 0,-333 2,-468l-4 -2c-45,22 -106,44 -185,66l3 11c32,-4 53,-5 64,-4 12,1 21,14 22,36 1,22 3,143 3,361 0,230 -2,358 -4,383 -2,19 -7,33 -14,43 -9,9 -17,16 -27,18 -9,3 -25,5 -47,7l0 14 6 0 105 -2 57 0c29,0 64,0 104,2l6 0 0 -14c-20,-2 -32,-3 -38,-4 -5,-2 -12,-5 -22,-9 -10,-4 -17,-9 -20,-19 -2,-8 -5,-21 -6,-36 -2,-13 -3,-107 -5,-280 32,-35 75,-50 129,-46 16,1 32,7 48,16 15,10 27,18 37,27 10,9 21,25 35,46 14,20 22,34 26,41 4,7 13,24 25,49 11,21 31,59 58,115 28,57 49,96 61,118 46,82 92,140 139,172 47,33 100,48 160,46 26,-2 50,-7 72,-17 22,-10 39,-19 48,-29 10,-10 18,-18 25,-28l-9 -8zm310 -158c-45,-7 -69,-34 -73,-79 -4,-5 -6,-91 -6,-259 0,-76 -3,-124 -9,-148 -14,-55 -50,-94 -109,-115 -59,-21 -125,-26 -198,-17 -89,13 -158,40 -207,85l27 126 13 0c18,-54 46,-96 85,-128 38,-30 79,-49 124,-58 63,-11 112,-5 145,17 18,10 29,26 35,50 4,16 5,55 4,116 -24,6 -61,14 -115,27 -54,12 -93,20 -117,27 -100,27 -166,60 -199,100 -35,42 -49,89 -45,143 4,47 27,86 70,118 43,32 101,47 177,43 96,-5 174,-40 233,-103 2,32 4,56 6,71l22 0c57,0 104,0 140,2l14 0 0 -17 -17 -1zm-349 -6c-54,3 -99,-7 -133,-28 -35,-21 -56,-52 -60,-95 -4,-37 5,-73 29,-110 24,-37 72,-67 146,-90 70,-22 137,-40 198,-54l0 93c0,95 1,163 3,204 -45,48 -106,76 -183,80zm438 -291c-4,-79 12,-147 53,-204 40,-57 91,-88 156,-93 68,-6 123,12 163,54 40,42 68,94 80,158l14 0 31 -146c-24,-23 -60,-45 -110,-65 -51,-18 -108,-26 -172,-23 -93,4 -169,34 -229,91 -61,58 -91,136 -91,232 1,94 34,173 99,236 66,64 146,94 239,93 122,-3 210,-50 261,-142l-13 -10c-22,28 -54,50 -95,68 -43,18 -88,25 -133,21 -74,-4 -134,-32 -179,-83 -46,-50 -70,-112 -74,-187zm1172 226c0,-27 0,-51 0,-75 -1,-24 -1,-53 -1,-89 -2,-35 -2,-69 -2,-101 -1,-56 -4,-100 -9,-135 -7,-33 -20,-61 -38,-82 -40,-50 -102,-72 -187,-68 -46,3 -90,18 -136,45 -46,28 -83,62 -115,103 0,-168 0,-315 1,-442l-4 -2c-35,18 -93,38 -175,65l4 15c24,-4 42,-6 55,-4 12,1 20,14 22,37 1,23 3,142 3,357 0,229 -2,355 -5,380 -1,19 -7,33 -13,43 -9,10 -17,17 -27,18 -10,3 -25,6 -47,7l0 17 6 0 105 -2 55 0c30,0 66,0 106,2l5 0 0 -17c-27,-3 -44,-6 -51,-7 -21,-7 -32,-26 -36,-61 -3,-25 -4,-151 -4,-377 29,-35 62,-64 103,-86 40,-21 79,-32 117,-32 30,0 56,4 77,14 21,9 37,20 50,34 11,14 19,34 26,59 7,26 11,49 13,73 1,24 2,53 2,89 2,126 2,201 0,222 -1,29 -7,47 -18,55 -11,10 -32,16 -61,17l0 17 6 0 147 -2 4 0c28,0 60,0 97,2l6 0 0 -17c-32,-3 -53,-8 -63,-17 -11,-7 -16,-26 -18,-55zm741 0c-1,-24 -1,-70 -1,-138l0 -137c-2,-107 -17,-176 -43,-209 -36,-46 -95,-67 -174,-66 -48,0 -100,14 -152,43 -55,30 -96,67 -127,111l0 -34 0 -34c0,-9 0,-18 2,-27 0,-9 0,-16 0,-22l0 -19 0 -11 0 -4 -4 -3c-60,27 -120,48 -177,64l5 16c23,-5 41,-6 52,-5 7,0 11,3 15,7 3,4 5,9 6,11 0,5 0,10 1,18 2,23 3,95 3,215 0,93 -1,168 -3,224 -1,29 -7,47 -16,55 -10,10 -31,16 -60,17l0 17 6 0 141 -2 4 0c29,0 61,0 95,2l5 0 0 -17c-30,-3 -50,-8 -59,-15 -10,-7 -14,-27 -16,-57l-1 -224 0 -141c28,-40 67,-71 116,-94 50,-23 96,-32 139,-31 27,1 50,8 68,18 18,11 33,24 43,36 10,14 17,34 22,60 5,26 7,48 9,69 1,21 1,49 1,85l0 222c-1,29 -5,48 -15,57 -10,8 -29,14 -58,15l0 17 5 0 142 -2 4 0c28,0 58,0 91,2l6 0 0 -17c-31,-3 -50,-8 -60,-15 -9,-7 -14,-27 -15,-57zm276 -701c29,-1 61,11 96,35 34,23 70,35 105,33 51,-1 88,-28 110,-79l-10 -5c-24,27 -54,41 -92,43 -29,1 -62,-12 -98,-36 -37,-25 -74,-37 -108,-34 -7,0 -13,2 -18,3 -7,1 -13,4 -17,6 -5,1 -11,4 -15,8 -6,4 -10,7 -14,10 -4,2 -8,7 -13,11 -4,4 -8,8 -11,11 -2,3 -5,7 -9,11 -5,4 -6,8 -7,10 -2,2 -4,7 -9,11l-4 5 10 9c29,-32 64,-49 104,-52zm447 772c-46,-7 -70,-34 -74,-79 -4,-5 -5,-91 -5,-259 0,-76 -3,-124 -10,-148 -14,-55 -50,-94 -108,-115 -60,-21 -125,-26 -199,-17 -88,13 -158,40 -206,85l26 126 14 0c18,-54 46,-96 84,-128 38,-30 80,-49 124,-58 64,-11 112,-5 146,17 18,10 29,26 34,50 4,16 6,55 4,116 -23,6 -61,14 -115,27 -54,12 -93,20 -116,27 -100,27 -167,60 -200,100 -35,42 -49,89 -44,143 4,47 26,86 69,118 43,32 101,47 178,43 95,-5 173,-40 233,-103 1,32 4,56 5,71l22 0c57,0 104,0 140,2l14 0 0 -17 -16 -1zm-350 -6c-54,3 -98,-7 -133,-28 -35,-21 -56,-52 -60,-95 -4,-37 6,-73 29,-110 24,-37 73,-67 146,-90 71,-22 137,-40 198,-54l0 93c0,95 2,163 3,204 -44,48 -105,76 -183,80zm659 -609c-26,3 -54,12 -85,29 -32,17 -57,38 -76,64l0 -94 -4 -3c-35,19 -93,40 -172,64l3 15c26,-4 44,-6 52,-4 7,0 11,3 16,7 2,4 4,8 5,11 0,4 0,9 2,18 1,11 1,87 1,227 0,85 -1,154 -3,210 -1,29 -5,48 -15,57 -10,8 -29,14 -58,15l0 17 5 0 143 -2 4 0c28,0 74,0 138,2l5 0 0 -17c-23,-1 -41,-3 -53,-4 -12,-2 -23,-6 -36,-10 -12,-4 -19,-11 -23,-21 -4,-9 -7,-22 -9,-37l-1 -210 0 -217c38,-48 86,-70 147,-67 63,4 103,36 121,93l10 0 26 -111c-11,-11 -31,-21 -57,-28 -28,-7 -57,-8 -86,-4z"/>
   <path class="fil1" d="M3496 231l7 7c40,-46 88,-69 143,-71 31,-1 61,7 87,23 26,15 53,32 82,47 29,16 62,23 100,22 33,-1 62,-12 88,-33 25,-21 43,-45 55,-74l-6 -5c-19,20 -39,36 -57,44 -18,8 -43,13 -72,14 -32,1 -62,-7 -89,-24 -26,-16 -54,-33 -83,-50 -29,-15 -64,-22 -103,-19 -12,1 -23,3 -34,7 -13,4 -23,8 -32,15 -10,7 -18,13 -25,18 -7,7 -16,14 -22,24 -7,9 -13,16 -17,21 -4,4 -8,11 -14,20l-8 14z"/>
  </g>
 </g>
</svg>
