<?xml version="1.0" encoding="utf-8"?>
<!-- Generator: Adobe Illustrator 23.0.1, SVG Export Plug-In . SVG Version: 6.00 Build 0)  -->
<svg version="1.1" id="Layer_1" xmlns="http://www.w3.org/2000/svg" xmlns:xlink="http://www.w3.org/1999/xlink" x="0px" y="0px"
	 viewBox="0 0 258.7 225.2" style="enable-background:new 0 0 258.7 225.2;" xml:space="preserve">
<style type="text/css">
	.st0{fill:#D2AE6D;}
	.st1{fill-rule:evenodd;clip-rule:evenodd;fill:#FFFFFF;}
	.st2{fill-rule:evenodd;clip-rule:evenodd;fill:#D2AE6D;}
	.st3{display:none;clip-path:url(#SVGID_2_);}
	.st4{display:inline;}
	.st5{display:inline;clip-path:url(#SVGID_4_);}
</style>
<g>
	<g>
		<path class="st0" d="M236.1,195.1c0,0.8,0,3.1-0.2,5.3c-0.1,1.5-0.6,2.7-1.6,2.9c-0.5,0.1-1.1,0.2-1.6,0.2c-0.3,0-0.4,0.2-0.4,0.3
			c0,0.3,0.3,0.4,0.8,0.4c1.6,0,4.9-0.2,5.2-0.2c0.3,0,3.6,0.2,6.5,0.2c0.6,0,0.8-0.2,0.8-0.4c0-0.2-0.1-0.3-0.4-0.3
			c-0.5,0-1.6-0.1-2.4-0.2c-1.6-0.2-2.1-1.4-2.2-2.9c-0.2-2.2-0.2-4.4-0.2-5.3v-4.5c0-1.7,0-3.4,0.8-5.3c1-2.3,8.4-14.7,10.1-16.8
			c1.2-1.4,1.7-2.1,2.8-2.7c0.8-0.5,1.9-0.7,2.4-0.7c0.4,0,0.7-0.2,0.7-0.4c0-0.2-0.3-0.3-0.7-0.3c-1,0-4.8,0.2-5.1,0.2
			c-0.4,0-2.1-0.2-3.5-0.2c-0.5,0-0.8,0.1-0.8,0.3c0,0.3,0.3,0.4,0.8,0.5c0.6,0.2,0.8,0.7,0.8,1.5c0,0.7-0.2,1.6-0.9,2.7
			c-1.1,1.7-7.8,13.3-8.8,15.6c-1-1.5-8.9-15.2-9.7-16.7c-0.4-0.8-0.7-1.4-0.7-2.1c0-0.4,0.3-0.7,0.7-1c0.5-0.2,0.8-0.3,0.8-0.5
			c0-0.2-0.1-0.4-0.7-0.4c-2.1,0-4.1,0.2-4.4,0.2c-0.3,0-4.2-0.2-5.2-0.2c-0.5,0-0.7,0.2-0.7,0.4c0,0.3,0.3,0.4,0.5,0.4
			c0.5,0,1.5,0.3,2.3,0.8c1,0.6,2.3,2,3.6,3.9c1.8,2.8,8.9,14.4,9.3,15.2c0.7,1.5,1.2,2.7,1.2,5.6V195.1z M206.8,166.5l6.6,0.1
			c5.1,0.1,6.3,1.3,6.5,2.9l0.1,0.6c0,0.7,0.2,0.9,0.4,0.9c0.2,0,0.4-0.2,0.4-0.7c0-0.6,0.2-4.2,0.2-5.8c0-0.3,0-0.6-0.3-0.6
			c-0.4,0-1.9,0.5-5.2,0.5h-19.8c-0.6,0-2.6-0.1-4.2-0.3c-1.4-0.1-2-0.6-2.3-0.6c-0.2,0-0.4,0.7-0.5,1c-0.1,0.4-1.2,5-1.2,5.5
			c0,0.3,0.1,0.5,0.3,0.5c0.2,0,0.4-0.1,0.5-0.5c0.2-0.4,0.3-0.7,0.9-1.6c0.8-1.3,2.1-1.6,5.4-1.7l7.8-0.1v22.4
			c0,5.1,0,9.3-0.3,11.5c-0.2,1.5-0.5,2.7-1.5,2.9c-0.5,0.1-1.1,0.2-1.6,0.2c-0.3,0-0.4,0.2-0.4,0.3c0,0.3,0.3,0.4,0.8,0.4
			c1.6,0,4.9-0.2,5.2-0.2c0.3,0,3.6,0.2,6.5,0.2c0.6,0,0.8-0.2,0.8-0.4c0-0.2-0.1-0.3-0.4-0.3c-0.5,0-1.6-0.1-2.4-0.2
			c-1.6-0.2-1.9-1.4-2.1-2.9c-0.3-2.2-0.3-6.4-0.3-11.5V166.5z M179.8,179.6c0-8.3,0-9.7,0.1-11.4c0.1-1.9,0.5-2.8,2-3
			c0.6-0.1,1-0.2,1.3-0.2c0.2,0,0.4-0.1,0.4-0.3c0-0.3-0.3-0.4-0.8-0.4c-1.6,0-4.9,0.2-5.2,0.2c-0.3,0-3.6-0.2-5.3-0.2
			c-0.6,0-0.8,0.1-0.8,0.4c0,0.2,0.2,0.3,0.4,0.3c0.4,0,1.1,0.1,1.6,0.2c1.2,0.3,1.7,1.2,1.8,3c0.1,1.7,0.1,3.2,0.1,11.4v9.3
			c0,5.1,0,9.3-0.3,11.5c-0.2,1.5-0.5,2.7-1.5,2.9c-0.5,0.1-1.1,0.2-1.6,0.2c-0.3,0-0.4,0.2-0.4,0.3c0,0.3,0.3,0.4,0.8,0.4
			c1.6,0,4.9-0.2,5.2-0.2c0.3,0,3.6,0.2,6.5,0.2c0.6,0,0.8-0.2,0.8-0.4c0-0.2-0.1-0.3-0.4-0.3c-0.5,0-1.6-0.1-2.4-0.2
			c-1.6-0.2-1.9-1.4-2.1-2.9c-0.3-2.2-0.3-6.4-0.3-11.5V179.6z M129,171.7c1.7,1.9,7.7,8.6,13.8,15.2c5.6,6,13.2,13.8,13.8,14.3
			c2.8,2.8,3.4,3.4,3.9,3.4c0.4,0,0.5-0.3,0.5-3.8l0.1-31c0-3.2,0.2-4.3,2-4.7c0.6-0.2,1-0.2,1.3-0.2c0.4,0,0.6-0.2,0.6-0.4
			c0-0.3-0.4-0.4-1-0.4c-2.2,0-3.9,0.2-4.5,0.2c-0.6,0-3.1-0.2-5.5-0.2c-0.6,0-1.1,0.1-1.1,0.4c0,0.2,0.1,0.4,0.4,0.4
			c0.4,0,1.6,0.1,2.6,0.3c1.6,0.4,2,1.6,2.1,5l0.6,26.9c-1.7-1.7-7.5-8.2-12.7-13.8c-8.1-8.7-16-17.2-16.8-18.1
			c-0.5-0.5-1.4-1.7-1.9-1.7c-0.4,0-0.6,0.6-0.6,2.6l-0.1,30.3c0,4.8-0.3,6.3-1.6,6.7c-0.8,0.3-1.7,0.3-2.2,0.3
			c-0.3,0-0.4,0.1-0.4,0.3c0,0.4,0.3,0.4,0.8,0.4c2.4,0,4.6-0.2,5.1-0.2c0.5,0,2.6,0.2,5.6,0.2c0.6,0,1-0.1,1-0.4
			c0-0.2-0.2-0.3-0.4-0.3c-0.5,0-1.6-0.1-2.6-0.3c-1.4-0.4-2-1.8-2.1-6.1L129,171.7z M112.4,179.6c0-8.3,0-9.7,0.1-11.4
			c0.1-1.9,0.5-2.8,2-3c0.6-0.1,1-0.2,1.3-0.2c0.2,0,0.4-0.1,0.4-0.3c0-0.3-0.3-0.4-0.8-0.4c-1.6,0-4.9,0.2-5.2,0.2
			c-0.3,0-3.6-0.2-5.3-0.2c-0.6,0-0.8,0.1-0.8,0.4c0,0.2,0.2,0.3,0.4,0.3c0.4,0,1.1,0.1,1.6,0.2c1.2,0.3,1.7,1.2,1.8,3
			c0.1,1.7,0.1,3.2,0.1,11.4v9.3c0,5.1,0,9.3-0.3,11.5c-0.2,1.5-0.5,2.7-1.5,2.9c-0.5,0.1-1.1,0.2-1.6,0.2c-0.3,0-0.4,0.2-0.4,0.3
			c0,0.3,0.3,0.4,0.8,0.4c1.6,0,4.9-0.2,5.2-0.2c0.3,0,3.6,0.2,6.5,0.2c0.6,0,0.8-0.2,0.8-0.4c0-0.2-0.1-0.3-0.4-0.3
			c-0.5,0-1.6-0.1-2.4-0.2c-1.6-0.2-1.9-1.4-2.1-2.9c-0.3-2.2-0.3-6.4-0.3-11.5V179.6z M73.1,170.7c-0.8-2.1-1.4-3.7-1.4-4.4
			c0-0.4,0.1-0.8,0.7-1.1c0.5-0.2,1.4-0.3,2-0.3c0.4,0,0.5-0.1,0.5-0.4c0-0.3-0.5-0.4-1.4-0.4c-2,0-4.4,0.2-4.9,0.2
			c-0.6,0-3.7-0.2-6.2-0.2c-0.8,0-1.4,0.1-1.4,0.4c0,0.2,0.1,0.4,0.4,0.4c0.3,0,1.2,0,2,0.2c1.9,0.5,2.6,1.1,3.8,4.1l13,32.4
			c1,2.5,1.3,3.3,1.9,3.3c0.5,0,0.7-0.8,2.2-4c1.2-2.6,3.6-8.3,6.8-16c2.7-6.5,5.3-12.9,5.9-14.3c1.4-3.6,2.2-4.5,2.9-5
			c1-0.6,2.2-0.6,2.5-0.6c0.4,0,0.6-0.1,0.6-0.4c0-0.3-0.3-0.4-0.9-0.4c-1.5,0-3.8,0.2-4.1,0.2c-0.6,0-3.1-0.2-5.2-0.2
			c-0.8,0-1.2,0.1-1.2,0.4c0,0.3,0.3,0.3,0.6,0.3c0.6,0,1.4,0,2,0.2c0.5,0.3,0.7,0.8,0.7,1.2c0,0.5-0.2,1.2-0.5,2
			c-1.2,3.8-8.3,22.3-11.3,29.4L73.1,170.7z M56,179.6c0-8.3,0-9.7,0.1-11.4c0.1-1.9,0.5-2.8,2-3c0.6-0.1,1-0.2,1.3-0.2
			c0.2,0,0.4-0.1,0.4-0.3c0-0.3-0.3-0.4-0.8-0.4c-1.6,0-4.9,0.2-5.2,0.2c-0.3,0-3.6-0.2-5.3-0.2c-0.6,0-0.8,0.1-0.8,0.4
			c0,0.2,0.2,0.3,0.4,0.3c0.4,0,1.1,0.1,1.6,0.2c1.2,0.3,1.7,1.2,1.8,3c0.1,1.7,0.1,3.2,0.1,11.4v9.3c0,5.1,0,9.3-0.3,11.5
			c-0.2,1.5-0.5,2.7-1.5,2.9c-0.5,0.1-1.1,0.2-1.6,0.2c-0.3,0-0.4,0.2-0.4,0.3c0,0.3,0.3,0.4,0.8,0.4c1.6,0,4.9-0.2,5.2-0.2
			c0.3,0,3.6,0.2,6.5,0.2c0.6,0,0.8-0.2,0.8-0.4c0-0.2-0.1-0.3-0.4-0.3c-0.5,0-1.6-0.1-2.4-0.2c-1.6-0.2-1.9-1.4-2.1-2.9
			C56,198.2,56,194,56,188.9V179.6z M11,178.8c0-4.1,0-9.5,0.1-11.3c0-0.6,0.2-0.8,0.6-1.1c0.4-0.2,2.4-0.4,3.4-0.4
			c6.3,0,12.3,0.7,17.3,6c2.2,2.3,5.1,6.6,5.1,13.3c0,4.9-1.5,9.9-4.2,12.6c-3.1,3.1-7.7,4.9-12.6,4.9c-6.2,0-8.3-1.1-9-2.1
			c-0.4-0.6-0.5-2.7-0.6-4c-0.1-1-0.1-5.9-0.1-11.5V178.8z M6.6,188.9c0,5.1,0,9.3-0.3,11.5c-0.2,1.5-0.5,2.7-1.5,2.9
			c-0.5,0.1-1.1,0.2-1.6,0.2c-0.3,0-0.4,0.2-0.4,0.3c0,0.3,0.3,0.4,0.8,0.4c1.6,0,4.9-0.2,5.2-0.2c0.5,0,7.2,0.6,11.7,0.6
			c9,0,13.8-3.7,16-6.1c3-3.1,5.7-8.3,5.7-14.9c0-6.3-2.5-10.7-5.1-13.4c-6.3-6.5-16-6-21.2-6c-3.2,0-6.5,0.2-7.1,0.2
			c-0.3,0-3.6-0.2-6-0.2c-0.6,0-0.8,0.1-0.8,0.4c0,0.2,0.2,0.3,0.4,0.3c0.5,0,1.4,0.1,1.8,0.2c1.7,0.4,2.2,1.2,2.3,3
			c0.1,1.7,0.1,3.2,0.1,11.4V188.9z"/>
		<path class="st1" d="M175.4,154.7l3.6-6.6h-1.7l-2.8,4.8l-2.8-4.8h-1.7l3.7,6.6v3.2h1.6V154.7z M166.3,149.7v-1.5h-7.9v1.5h3.1
			v8.3h1.7v-8.3H166.3z M147.5,153.6v-3.9h2.3c1.5,0,2.4,0.6,2.4,1.9c0,1.3-0.9,2-2.4,2H147.5z M152.1,158h1.9l-2.2-3.3
			c1.3-0.5,2-1.6,2-3.2c0-2.1-1.4-3.4-4-3.4h-4v9.8h1.7v-3h2.3c0.2,0,0.3,0,0.4,0L152.1,158z M139.9,148.2h-1.7v5.8
			c0,1.7-1,2.7-2.6,2.7c-1.6,0-2.6-1-2.6-2.7v-5.8h-1.7v5.8c0,2.6,1.6,4.1,4.3,4.1c2.7,0,4.3-1.6,4.3-4.1V148.2z M125.3,158v-9.8h-2
			l-3.2,6.5l-3.2-6.5h-2v9.8h1.6v-7.3l3.1,6.3h1.1l3.1-6.3l0,7.3H125.3z M108.7,158v-9.8H107v9.8H108.7z M94.9,153.6v-3.9h2.3
			c1.5,0,2.4,0.6,2.4,1.9c0,1.3-0.9,2-2.4,2H94.9z M99.5,158h1.9l-2.2-3.3c1.3-0.5,2-1.6,2-3.2c0-2.1-1.4-3.4-4-3.4h-4v9.8h1.7v-3
			h2.3c0.2,0,0.3,0,0.4,0L99.5,158z M88.2,149.7v-1.5h-7.9v1.5h3.1v8.3h1.7v-8.3H88.2z"/>
		<path class="st1" d="M246.4,212.8v1.1h-2v9.9h-1.3v-3.3c-0.6,0.8-1.5,1.2-2.8,1.2c-1,0-1.9-0.3-2.6-1c-0.8,1-2,1.6-3.4,1.6
			c-1,0-1.9-0.3-2.6-0.9c-0.7-0.6-1-1.4-1-2.4c0-0.9,0.3-1.7,1-2.3c0.6-0.6,1.5-0.9,2.4-0.9c0.4,0,0.8,0,1.1,0.1v1.2
			c-0.3-0.1-0.6-0.2-1-0.2c-0.6,0-1.1,0.2-1.5,0.6c-0.4,0.4-0.6,0.9-0.6,1.5c0,0.7,0.2,1.2,0.7,1.6c0.4,0.4,1,0.6,1.7,0.6
			c1,0,1.9-0.4,2.6-1.3c-0.4-0.7-0.7-1.4-0.8-2.4c0.9-0.1,1.6-0.4,2.1-0.8c0.5-0.4,0.7-0.8,0.7-1.3c0-0.6-0.2-1.1-0.5-1.5h-8.9v-1.1
			H246.4z M243.1,218.1V214h-3.2c0.3,0.4,0.4,1,0.4,1.6c0,1.3-0.8,2.3-2.5,2.8c0.1,0.6,0.5,1.1,0.9,1.6c0.5,0.4,1.1,0.6,1.7,0.6
			c0.8,0,1.4-0.2,1.9-0.7C242.8,219.4,243.1,218.8,243.1,218.1z M219.8,212.8H230v1.1h-2.1v2.9h-3c-0.8,0-1.4,0.2-1.8,0.6
			c-0.4,0.4-0.7,1-0.7,1.7c0,0.7,0.2,1.3,0.6,1.7c0.4,0.4,0.9,0.6,1.6,0.6c0.7,0,1.2-0.2,1.6-0.6c0.4-0.4,0.6-0.9,0.6-1.5h1.3v4.5
			h-1.3v-2.3c-0.5,0.6-1.2,0.9-2.3,0.9c-1.1,0-1.9-0.3-2.6-1c-0.7-0.7-1-1.5-1-2.5c0-1,0.3-1.8,1-2.5c0.7-0.6,1.6-1,2.8-1h1.8V214
			h-6.8V212.8z M220.5,208.4c1.4,0,2.6,0.2,3.8,0.5c1.1,0.3,2.4,0.8,3.7,1.3v1.3c-2.6-1.3-5.1-1.9-7.4-1.9c-0.6,0-1.1,0.2-1.4,0.5
			c-0.3,0.3-0.5,0.8-0.5,1.3v1.4h2v1.1h-2v9.9h-1.3V214h-2v-1.1h2v-1.4c0-0.9,0.3-1.6,0.9-2.1C218.7,208.7,219.5,208.4,220.5,208.4z
			"/>
		<rect x="2" y="217.2" class="st2" width="210" height="1.5"/>
		<g>
			<defs>
				<path id="SVGID_1_" d="M129.7,1.1c15.7,0,30.1,6.5,40.5,16.9C180.6,28.3,187,42.7,187,58.4c0,15.8-6.5,30.1-16.9,40.5
					c-10.4,10.4-24.7,16.8-40.5,16.8h-26.3V38.1h-9.5v59.1c0,1.7-1.3,3-3,3c-1.7,0-3-1.3-3-3V38.1h-9.5v39.7c0,1.7-1.3,3-3,3
					c-1.7,0-3-1.3-3-3V32.1h57.3c7.2,0,13.7,3,18.5,7.8c4.8,4.8,7.8,11.3,7.8,18.5c0,7.2-3,13.8-7.8,18.5
					c-4.8,4.8-11.3,7.8-18.5,7.8h-20.3v9.5h20.3c9.8,0,18.8-4,25.3-10.5c6.5-6.5,10.6-15.5,10.6-25.3c0-9.8-4.1-18.8-10.6-25.3
					c-6.5-6.5-15.4-10.6-25.3-10.6h-8.4h1H90.7c-1.7,0-3-1.3-3-3c0-1.7,1.3-3,3-3h31.6h-1h8.4c11.5,0,21.9,4.7,29.5,12.3
					c7.6,7.6,12.3,18,12.3,29.5c0,11.5-4.7,21.9-12.3,29.5c-7.6,7.6-18,12.3-29.5,12.3h-20.3v9.5h20.3c14.1,0,27-5.8,36.3-15.1
					c9.3-9.3,15.1-22.2,15.1-36.3c0-14.1-5.8-27-15.1-36.3c-9.3-9.3-22.2-15.1-36.3-15.1h-8.4h1h-12.2c-1.7,0-3-1.3-3-3s1.3-3,3-3
					H129.7z M109.4,38.1v40.6h20.3c5.5,0,10.6-2.3,14.3-6c3.7-3.7,6-8.8,6-14.3c0-5.5-2.3-10.6-6-14.3c-3.7-3.7-8.8-6-14.3-6H109.4z
					"/>
			</defs>
			<use xlink:href="#SVGID_1_"  style="overflow:visible;fill-rule:evenodd;clip-rule:evenodd;fill:#D2AE6D;"/>
			<clipPath id="SVGID_2_">
				<use xlink:href="#SVGID_1_"  style="overflow:visible;"/>
			</clipPath>
			<g class="st3">
				<defs>
					<rect id="SVGID_3_" x="16.8" y="-1.8" width="174.6" height="254"/>
				</defs>
				<use xlink:href="#SVGID_3_"  style="display:inline;overflow:visible;fill-rule:evenodd;clip-rule:evenodd;fill:#D2AE6D;"/>
				<clipPath id="SVGID_4_" class="st4">
					<use xlink:href="#SVGID_3_"  style="overflow:visible;"/>
				</clipPath>
				<g class="st5">
					<defs>
						<rect id="SVGID_5_" x="72.3" y="0.9" width="114.8" height="114.9"/>
					</defs>
					<use xlink:href="#SVGID_5_"  style="overflow:visible;fill:#D2AE6D;"/>
					<clipPath id="SVGID_6_">
						<use xlink:href="#SVGID_5_"  style="overflow:visible;"/>
					</clipPath>
					<g style="clip-path:url(#SVGID_6_);">
						
							<image style="overflow:visible;" width="254" height="254" xlink:href="D59670F7.jpg"  transform="matrix(0.4519 0 0 0.4524 72.2698 0.9092)">
						</image>
					</g>
				</g>
			</g>
		</g>
	</g>
</g>
<g>
</g>
<g>
</g>
<g>
</g>
<g>
</g>
<g>
</g>
<g>
</g>
<g>
</g>
<g>
</g>
<g>
</g>
<g>
</g>
<g>
</g>
<g>
</g>
<g>
</g>
<g>
</g>
<g>
</g>
</svg>
